/* XPM */
static char * castle_xpm[] = {
"64 64 22 1",
" 	c #63965D",
".	c #78A04C",
"+	c #8D4848",
"@	c #8BA452",
"#	c #161C2E",
"$	c #E1956E",
"%	c #DE5454",
"&	c #F8D4A6",
"*	c #4E373A",
"=	c #C06D50",
"-	c #EA9461",
";	c #65323B",
">	c #BBAE93",
",	c #568353",
"'	c #E1DCA3",
")	c #988E84",
"!	c #3F4A50",
"~	c #688B45",
"{	c #54726F",
"]	c #809E94",
"^	c #A4B9AA",
"/	c #798F4A",
"   ...    .  ..    ..     . ++++++++++++  ...................  .",
"   ....            @@.  @  #$$$$$$$$$$$%##......................",
".........    .     @@@++@ ##$$&%%%%%%%%%%+......................",
"...................++$$%# #*&%%#+++++###%%......................",
"......  ..........+$$$$%%##*#++%+%%%%%++%%++.........  .........",
"......   ........+$$$$&%##+##++%%%%%%%+*+%%%+#   .%%%++++++  ...",
".......  .......+$&&&$&++#++#+++++%%%++*++%%%#   #%$$$%%%$#  ...",
"................##%%%#+++#+###*++++++++***+###   &&$$$$$$$# ....",
"..............@@#**##++++#++++++++++++++++*+#*#  #++++++++#..#$$",
"..............#@#***++++++++++**###+++###++*#*###++++%%%%%####&$",
"..............+$#***++*++++##+++#++===++==#+#*+++++++%%%%%#++#++",
".............+$$%##*#++++#++++===#=++=++==#++#++##*++++++*####*+",
".............+$$$%##++++##+++++------=+=+-#*++++++%%%%%+++++++++",
".............$$$$%#*+++#++#++=-+--;----==+#*++++++%%%%%%%%++%%%+",
"..   ....   +$$$$%#**++++++;=+--=--;---==#;#**+++++%%%++++++++++",
".    ...    +$$$%##**#+++++=;-=-==--;-+=-;;+++#+*+++++****++++++",
"    ...     +&$&%##*##+++=+--;-=---=--++-;;+=+;###+######*#++++#",
"    ..      +&&%%###++#+++-=-=------=---#;;=+#;#+##++++++#+++++#",
"   .....   @@#+++###+++#=+=-=-====---=--;;=+-;;+++#++=++#+=+=++#",
"...........@@#++++##++++#==---=------+=#;;=+-;#++#++=+=+;+==++;=",
"..........@@@#+++#%#++++=;-------#+--+=;;===;;++=;===+=;=+++==;=",
".............#+#%%%%#++===;-=----;++==-;;==-;#+========;+=+=====",
"..............##%%$$$%#+++=;=--=-+;+=+#;===-;#+===+=====+=+==;==",
"....  .  ......##$$$$$$$#=++;-===+=#++#;===#;+====++==#=+=+====+",
"...      .   ..#++$$$$$$#==###===+==#;;#+=-;;+=;==++===+======+=",
"...          ..#+++&&$&+#+=#$$$%#########=-;#==;++=+=#=+===+;+==",
".....       ...#+++++##+#+#$$$$$%%%%%%%%#=#;+=;+===+============",
"................++++++++##%%&$$$$$$$$$$%*-#;+=;=====;==++=+;===+",
"................#+++++++*###%%&$$$$$$$&#*-;#+;====+=;==+==+===+=",
"................#++++#+**#+++++%%%++###**#;++;==++=;===+=+;==+==",
"..........  .....#++++##*#++%%%%%%%%%++**#;++=++####=++==+;==+==",
".........   .. .. #+++++###+%%%%%%%%%%+#+##+#++#%%%%%%%%%#=====;",
".....  ..      .  ##++%%%%%%%+++%%%++++#+++####%%$$$$$$$&#+=+###",
"....    ..   @@@  #+>##+++%%%%%%%%%%%%++#+++++###+++%+####+++#%%",
"....    .@@  @@@  #++>###++%%%%%%%%%%+#++#++++++++%%%%%%+#+++%$$",
"....   ..@@.@@@    #+>+#+####++++++####+++++##++++%%%%%%+#+++#+&",
"..........@.@@@.  .#>>+#++++#+#>>>>>>>#+++++%%%%%+++++++##++++%%",
"...................#>>++#%%++##+++++++##++++%%%%%%%%+%%%%%%%%#+%",
"...................#>>>%>>+++##++>>>>>##+++++++%%%%%+%%%%%%%%%%%",
"..................,##>>%%%>>>>>+>''''>)##++##+++%%%%%+++++%%%%%+",
"................. ,#+>>'>%%%%%%%>''''>)#)#####++%%%%%%+###%%%%##",
"......   ........,,#+>>'>'>>>>>>>>>>>>)#))>>>>#####++++#>>#%%##>",
"......    ...... ,,#+>>>'''''''>'''''))#>>>>>>>#+++++###>>>>+++>",
"  .....   ...... ,#!>+>>>''''''>'''''>>#)>>>'''#%+++++>>>+++++>+",
"  .  ...  .   .. ,#!#+>>''''''>>>>>>'>)#)>>''''>+++++#>+++>>>>>>",
"      ....    ..~~#{{>+>'''''''''>'''>+#)>>''''>>>>>>++'''!!]^^^",
"      ....   ....~#{{#>+>>'''''''>''>>+#)>>>'>>'''''%%''{]]{]^^^",
"      ....  .....~~#{#>+%%>>'''''>>>++))+>>'''''''''%'']^^^{]]]]",
"..   ............./#{]#>>%%%>>%%>>%%+>##+>>>>>'''''%%'#]]]{#{]]]",
"..............@@.@/##]{#'''%%%>>%%%%>>##+++>''>''''%'#]{{]]#]]]]",
".....   .....@@@.//#!#]]>'''''''''''##{##+++>>>>'''%'##]{]]{]]]]",
"  ...    ....@@..,,#!##]]]]]]]{{{{{]]]{##>>+%%%%%'%%'#{]]]]###++",
"  ...     ..   ..,,,!!!{!!]]]]]]]]{]]]##{#>>'''%%%%%'#{{]###+#++",
"    .     .    ..~,,!!!{{{{!!]]]]{#!!###{{{#{{'''''''#{{##+++#+%",
".      @@     ...~~~#!!{{{{{!{{{{{#{{!#!{{{]]]]]]]###{]]{##$$$$$",
"..@@  @@@@.......~~~~!!!{{{{{{{{{{#{{!!!!#{]]]{]]]]{{{]]{#+%%%%%",
"..@@@.@@@@.@@@...~~~~##!{{{{{{{{{{!{{!!#!{{{!###!!]{{{{{{#######",
"..@@@.@@@.@@@@....~~//#!!{{{{!{{{{!{{!!#!{{{{{#!{{{{{#]]{#+++++%",
"...@@.@@..@@....@@.///~~!!!{{{!{{!#!{!!#!{{{{!#!{{{{{#{{{##$$$$$",
"...............@@.@@@.~~##!!!!!!!!#!!!!#!!!!{{!!{{{{{!!!##+%%%%%",
"......................~~~~~!!####~~##~~~##!!!!#!!!{{{!{{!#######",
"..  ..................~~~~~~~~,,,~~~~~~~~~~~#####!!!!!!!!#+#%++%",
".   ..........   ....  ,~~~~~~,,,,~,,~~~~~~~~~~~~~~##!!!!###+##+",
"    ..   .....    ...    .~~~~,,   ,,~~~....~~~~~~~~~##!#~~####!"};
