/* XPM */
static char *c460a91de9d94610a822c14c2940565bX33vrev7mewufnmw[] = {
/* columns rows colors chars-per-pixel */
"32 32 41 1 ",
"  c #AE8F70",
". c #BA9A79",
"X c #A17F6F",
"o c #9C7855",
"O c #AA835E",
"+ c #8B6553",
"@ c #A18567",
"# c #8B694A",
"$ c #765248",
"% c #725642",
"& c #17111A",
"* c #957251",
"= c #8F6E64",
"- c #FFD94C",
"; c #FFBF36",
": c #99572F",
"> c #5C3139",
", c #8C735F",
"< c #826345",
"1 c #753939",
"2 c #6B4841",
"3 c #9A7D61",
"4 c #372538",
"5 c #5F3239",
"6 c #A88B6C",
"7 c #85655E",
"8 c #8B6637",
"9 c #4F2D39",
"0 c #73523A",
"q c #7B5C44",
"w c #65443F",
"e c #6C5241",
"r c #6B4C38",
"t c #563431",
"y c #5B4135",
"u c #705542",
"i c #5D3E3B",
"p c #634B40",
"a c #5F4335",
"s c #4D2E2D",
"d c #533B33",
/* pixels */
"      .XXX ooooOOOO++++++++++ooo",
" ooooO+++ooooOO+++++ooooooo+++++",
" oooO++oooOOO+++oooooooooooooooo",
"@#o$$$###o$$$$%##oooooooooo#####",
" o$$$###&&&&&&##o$$$$$$$$$$$$$*#",
"=$#####&--;:>>&&&$###########$$#",
",%<<<<&-;;:>11111&&&222<<<<<<<2<",
"3<<<<&-;;:>111111111&&&2222<<<2<",
"3<<<<&-;:>1111111111:--&&&22<<%<",
"3<<<&-;:>1111111111:-;;:>1&2<<<2",
"3<<<&-;:>111111111:-;;:>111&<22%",
"3**&-;:>111111111:-;;:>11111&2%<",
"322&:;:>11111111:-;;:>111111&%<<",
"3<<&-:4>51111111:-;:>1111114&<<<",
"6<<&-;:4>::1111:-;;:>111144>&222",
"7*<&-;:>:--::11:-;:>11144>>>&2%%",
"72*&-;:>:-;--:4:-;:>144>>55>&%<<",
"722&-;:>:-84;:>4::444>>5555>&222",
"722&-;:>:-;8;:>:-;:>>555511>&%%%",
"722&-;:>:-;;;:>:-;:>5551111>&<<<",
"%%%&-;:>9::;;:>:-;:>5111111>&<<0",
"<<<&-;:>1>>::>1:-;:>1111111>&<<0",
"<**&-;:>111>>11:-;:>1111111>&<<0",
"<222&&&>>111111:-;:>1111111>&<<0",
"<%%%%%%&&&>>>11:-;:>11111>>&**<0",
"<<<<<<2222&&&>>:-;:>111>>&&222<0",
"qqqqqwwwwwwww&&&-;:>1>>&&qqeewwr",
"wwwwwwwwwwqqqqqw&&:>>&&qqqqqqeet",
"qqqqwqqqqqq***qeee&&&wqqqqqqqqqy",
"uuuuuuuuuuiiiiiuuupppiiiiiiuuuua",
"uuuiiiiiiiiiiiiiiuuuuppppppiiiua",
"uiiiiiiiiisssssssssaaaaaaaadddda"
};
