/* XPM */
static char *_d1a90b1dcda4fb29ad8ba782bcc90733JdtNnQFtOTJA85m[] = {
/* columns rows colors chars-per-pixel */
"32 32 5 1 ",
"  c #C28569",
". c #B86F50",
"X c #E8B796",
"o c #E4A672",
"O c #D77643",
/* pixels */
"           ....  X ......  ....o",
" o  ooOoO ....  XO  ...  X   ooX",
"    OOo  X.   OOO  ... oXo  ooXX",
" o  oo  X..  OOO   .      oooXoo",
" oXo  . XX     .    oo   O   Ooo",
" XX   X o oo . . ooo   oOO  oo X",
"XX  oXo       o o Xo  ooo   o   ",
"  ooXXX oo   oooXXOo ooo  ..  . ",
". o ooX.O  ooooXXXo    oo ..    ",
"..   Ooo.. oOOo X    OOOoo...O .",
"...o XoXo. Ooo       .OO...O. ..",
"....   o .... o o       ..O.....",
"  O..   oo.X.. .  ..    ooo .X..",
"oo  .    X..... .. ..  Xoo..o . ",
"oo  oo ........ ....X oooXO     ",
"ooooOo  . o.  ..  Xo oooX..   oo",
"oooOo  .  oo  .   o    X ...O  o",
"   oo .. o            ...OOO..  ",
"      ..   .  .o     ..OO.......",
"  . X...... . oo  oo  ... ......",
"  .X..   . .. ..ooooo..  X ..  .",
"  .X.  X  o .......o .     .  OO",
" .XX  X      ......... X  ..  oo",
"..X  XoOO   oo........X  ..  ooo",
"...  .Ooo  .Oooo..o oo   ..ooooo",
"....  Ooo  OOooo...   o  O o  Oo",
"X...   oooOOoo   .. .OoOOOOO Ooo",
"...  oo oO..X   .... ooo oOO  oo",
"...  oo  O.o   ....  oo    ... o",
".          ooO...         .....o",
"  o  o oO   ...X.      o...X....",
"  oooooOo........... oo........."
};
