/* XPM */
static char * empty_xpm[] = {
"64 64 3 1",
" 	c #63965D",
".	c #78A04C",
"+	c #8BA452",
"   ...    .  ..    ..     .  .       ..   ...................  .",
"   ....            ++.  +    ..      .    ......................",
".........    .     +++.++          ..    .......................",
"....................++.++  ....   ..............................",
"......  .............................................  .........",
"......   .....................................   ...   ...   ...",
".......  ...........++..++............   .  ..    .    .     ...",
"...................++++.+++......   ..      ..              ....",
"..............++...++++.++++.....    ..      ..            .....",
"..............+++.+++++   ++......   ...     ..  ...   ......  .",
"...............+++++++    .............................   ..   .",
".....................    .....+++...++.................    .  ..",
"..............................+++++.+++..............++    .....",
"..............................+++++.+++.   ..++..++..+++  .+++..",
"..   ....   ...................++++  ++     +++.++++.++++.++++  ",
".    ...    ..    ................          ++++.++++.+++++++   ",
"    ...           ................         ..+++..+++++++.++..  ",
"    ..      ++    ................  ..........................  ",
"   .....   +++   .............................................. ",
"...........+++..................................................",
"..........+++................  ................   ....   .......",
".........................  .   ..........  ....    ..    .......",
".........................     ++......  .   ...  + .      ......",
"....  .  .............++++   +++......       ..  ++++      .....",
"...      .   .....++.+++++++++++.  ...   .       ++++  .    ....",
"...          ...  ++++++  + +++.   ...............++............",
".....       ....   ++.++     ...  .............  ...  ..........",
".................  ......   ..............   ..   .    .........",
"..........................................              ........",
"..................................++...++..        .     .......",
"..........  ......................+++.++++..    ++ ..++.........",
".........   .. ..  ...........+++.+++.++++++++. +++.+++.........",
".....  ..      .   ..   ......++++.++++++++++++++++++++.++...++.",
"....    ..   +++        .......+++..++++   +++++++++++++++..+++.",
"....    .++  +++       .........++..   +    +++++  ++..+++..++..",
"....   ..++.+++    .. ..............        ++++   .............",
"..........+.+++.  ...................  ..    ...  ..............",
"..........................................   ...................",
"................................................................",
"..................  ............................................",
".................   ..  ........................................",
"......   ........   .   ..  ................   .................",
"......    ......            ................    .   ...  .......",
"  .....   ......       ..  ..................   .    .   .. ....",
"  .  ...  .   ..     .........................   .       .  ... ",
"      ....    .....................++.......  .  ..    ++   ..  ",
"      ....   ...............  .....+++..  ..   .....  .+++...   ",
"      ....  .............++.   +++.+++.   ..    ........++...   ",
"..   .............++.....+++   ++++++++  ....   ..............  ",
"..............++.++++....++++  +++++  +++.......................",
".....   .....+++.+++++....++++..+++   ++........................",
"  ...    ....++..  ++++.....++....   .......................... ",
"  ...     ..   ..   .........................................   ",
"    .     .    ...  ................................++..++.     ",
".      ++     .....................  ...   ...++...+++.++++    .",
"..++  ++++...............   .......   .    ...+++..++.+++++.....",
"..+++.++++.+++...........    .   ..++     .   .++..+.++++.......",
"..+++.+++.++++......++...        .+++ ++      ..................",
"...++.++..++....++.+++....  .   ..++++++.    .......   .........",
"...............++.+++...............+++............    .........",
"................................................  .    .........",
"..  ..........................   ...............      ..........",
".   ..........   ....   ......    .  .......................  ..",
"    ..   .....    ...    .....       .......................   ."};
