/* XPM */
static char * enemy2_xpm[] = {
"64 64 15 1",
" 	c #63965D",
".	c #78A04C",
"+	c #924159",
"@	c #8BA452",
"#	c #E76161",
"$	c #161C2E",
"%	c #C8A876",
"&	c #EFE1AB",
"*	c #E8CE91",
"=	c #947467",
"-	c #CF9C71",
";	c #FFFFFF",
">	c #768B46",
",	c #658841",
"'	c #547F4F",
"   ...    .  ..    ..     .  .       ++++++++++++............  .",
"   ....            @@.  @    ..     +++++######$$$$.............",
".........    .     @@@.@@         ++############++$$$...........",
"....................@@.@@  .... ++++###########++++$$$..........",
"......  ........................++######++##++++++++$$ .........",
"......   .......................+#####++########++++$$$...   ...",
".......  ...........@@..@@.....+####++############+++$$.     ...",
"...................@@@@.@@@....+####++############+++$$     ....",
"..............@@...@@@@.@@@@...+####+#####+++++####+++$    .....",
"..............@@@.@@@@@   @@...$+##++###+++$$$$+++++++$......  .",
"...............@@@@@@@    .....$+##+####++$$$$$+++++++$   ..   .",
".....................    .....@$$##+####+$$$$$$$++++++$    .  ..",
"..............................@@$+++####+$$$$$++++++++$    .....",
"..............................@$$$++####+$$$$++++++++$$@  .@@@..",
"..   ....   .................%$$$$$++##+$$$$$$++++++$$$$@.@@@@  ",
".    ...    ..    ..........%%$%%$$+++++$$$%$$$+++++$$$$$$@@@   ",
"    ...           ..........%%&%%%$+++++$$%%%$$++++$$$$$$$$@..  ",
"**  ..      @@    .........%%&&&%%%%++++%%%%%%$$+++$$+++++$$..  ",
"*****...   @@@   ..........%%%&&%%%%%%%%%%%%&&$$+++$$+++++$$$.. ",
"=*****.....@@@............%%%%%&&&%%%%%%%%&&%$$$$++$$+++++$$$...",
"==******..@@@.............%%&&%%&&&&&&&&&&&$$$$$$++$$++++++$$$..",
"==-*---**................%%%&&&&&&&&&&&&$$$$%%%&$$+$++++++++$$..",
"==-**--***...............%%&&&&&&&&&&&&&&%%%%%%&$$++++++++++$$..",
"==--*-****............@@%%%&&&&$$&&&&&&&&%%%%%%&$$$++++++++$$$..",
"==---******  .....@@.@@@%%&&&&$$$&&&&&&&&%%%%%%&&$$++++++++$$$..",
"==---******* ...  @@@@@@$%&&&&$$$&&&&&&&&%%%%%%&&$$+++++++$$$...",
"==----******....   @@.@@$$&&&&$$&&&&&&&&&%%%%%%&&$$$++++++$$$...",
"==----*******....  .....$$&&&$$$&&&&&&&&&&%%%%%%&$$$$++++$$$....",
".$----***---*...........$$$$&$$$&&&&&&&&&&%%%%%%&&$$$$$$$$......",
".$$---***---*..........$$$$$$$$$&&&&&&&&&&%%%%%%&&$$$$$$$.......",
"..$----**----*........$$$$$$$$$$$$$$$$$$$&%%%%%%%&$$$$$...$$....",
"..$$----*----**..  ...$$&$$$$$$$$$$$$$$$$&&&&%%%%&$$@@@..$$$$...",
"...$$----*---**$   ..$$$&&&$$$$$$$$$$&&&&&&%%%%%%&&$$@@.$$$;;$$.",
"...$$$---*----$$     $$$%&&&$$$$$$$&&&&&%%%%%%%%%%&$$@@$$$;;;$$$",
"....$$---**---$$$    $$$%%&&$$$$&&&&&&&%%%%%%%%%%%&$$.$$$;;;$$$$",
"....$$---**---$$$  ..$$%%%%&&$$$&&&&&%%%%%%%%%%%%%&$$$$$;;;$$$$$",
".....$$---==---$$$...$$%%%%%&$$$&%%%%%%%%%%%%%%$$$$$$;;;;$$$&&$$",
".....$$----==---$$...$$%%%%%&$$$&%%%%%%%$$$$$$$$$$;;;;;;$$&&##$$",
"......$$----=----$...$$%%%%%&$$$&%%%%%%%$$$$$$$;;;;;;;;$&&&###$$",
"......$$$---=----$$ .$$$%%%%&$$$&%%%%%%%$;;;;;;;;;;;&&&&&&####$$",
".......$$----=---$$$.$##$%%%&$$$&%%%%%%%$#;;;;;&&&&&&&########$$",
"...... $$----==---$$$$$#$$%%&&$$&%%%%%%%$##;&&&&&&&&&&########&$",
"......  $$---=$=--$$$$$$$$$%&&&&&%%%%%%%$$#;;&&&&&&&&&########&$",
"  .....  $$--=$$==$$$#$$##$$&&&&%%%%$$$$$$#;;&&&&&&&&&&#######&$",
"  .  ... $$===$$$$$$$#$$###$$%%%%%$$$$$$$$#;;&&&&&&&&&&#######&$",
"      ...$$===$$$$$###$$####$$$$$$$$$$##$$#;&&&&&&&&&%&#######&$",
"      ....$$==$$$####$$$$###$$$$$$$$####$$#;&&&&&&&&%%&#######&$",
"      $$$$$$$$++++$$$$$$$$$############$$###&&&&&&&%%%&###&&&&&$",
"..   $$##$$$$++++$$$%$$$+$$$########++++$##&&&&&&%%%%&###&&&&&$$",
".....$###$$$++++$$$$%$$$+++++++####+++++$##&&&&&%%%&&&#&%%&&&&$$",
".....$###$$+++$$$%%$$%$$++++++++++++++++$##&&&&&&&&##&&%%%&&&&$$",
"  ...$$##++$$$$$%%%%$$$$++++++++++++++++$##$&&&#######&%%%&&&&$$",
"  ... $$#+$$$$$$%%%%$$$$++++++++++++++++$##$$$$#######&%%%&&&&$$",
"    . $$$$$$$  $$%%%$$$$$+++++++++++++++$$#$$$########&%%&&&&&$$",
".      $$$$   ..$$$$$+++$$++++++++++++++$$#$$&########&%%&&&&&$.",
"..@@  @@@@.......$$$++++$$$$$$++++++++++$$#$$&########&%&&&&&$..",
"..@@@.@@@@.@@@.....$$++$$$$$$$$$$$$$$$$$$$#$$&&########%&&&&$$..",
"..@@@.@@@.@@@@.....$$$$$$$$$$$$$$$$$$$$$$$$#$$&########&&&&$$...",
"...@@.@@..@@....@@.@@>,,$$$',''',,>>>>>>,'$$#$$&######$&&&$$....",
"...............@@.@@@,,,$$$,,,,,,,,,>>>,,,,$$$$&&#####$&&$$.....",
".....................,,$$$$,,,,,,,,,,,,,,,,$$$$$&&####$&$$......",
"..  .................,,,,,,,,,''',,,,,,,,,,,$$$$$&&###$$$$......",
".   ..........   ....''',,,,,,'''','',,,,,,,,,,$$$$&&##$$...  ..",
"    ..   .....    ... ''',,,,,''''''',,,,,,,,,,,$$$$&&$$....   ."};
