/* XPM */
static char *_9c45e7ba85d424ed86cbee8f1de71532zbUy3eoqDP3ZnHX[] = {
/* columns rows colors chars-per-pixel */
"32 32 33 1 ",
"  c #AE8F70",
". c #BA9A79",
"X c #A17F6F",
"o c #9C7855",
"O c #AA835E",
"+ c #8B6553",
"@ c #A18567",
"# c #8B694A",
"$ c #FFF275",
"% c #17111A",
"& c #765248",
"* c #957251",
"= c #8F6E64",
"- c #8C735F",
"; c #725642",
": c #826345",
"> c #6B4841",
", c #9A7D61",
"< c #A88B6C",
"1 c #85655E",
"2 c #73523A",
"3 c #7B5C44",
"4 c #65443F",
"5 c #6B4C38",
"6 c #6C5241",
"7 c #563431",
"8 c #5B4135",
"9 c #705542",
"0 c #5D3E3B",
"q c #634B40",
"w c #5F4335",
"e c #4D2E2D",
"r c #533B33",
/* pixels */
"      .XXX ooooOOOO++++++++++ooo",
" ooooO+++ooooOO+++++ooooooo+++++",
" oooO++oooOOO+++oooooooooooooooo",
"@#o$$$$$$%&%$$$$$$$%oo%$$$$%%###",
" o&%%$$$$$%$$$$$$$$$%%$$$%%&&&*#",
"=&##%%%%%$$$$$$$$$$$$$%%%####&&#",
"-;:%$%:*>%$$$$$$$$$$$%>:::%%%:>:",
",::$$$%%%%$$$$$$$$$$$%%%%%$$$:>:",
",::$$$$$$$$$$$$$$$$$$$$$$$$$$:;:",
",::$$$%%%%$$$$$$$$$$$%%%%%%%%::>",
",::%%%*>>*%$$$$$$$$$$%;;;::;:>>;",
",***::::%%$$$$$$$$$$$$%%::::>>;:",
",>>>*%%$$$%%%$$$$$$%%$$$%%>>>;::",
",::%%$$$$%>%$$%$%%$%>%%$$$%%;:::",
"<::$$$$%%:>%$%%$%:%$%;;%$$$$%>>>",
"1*:$$$%>*:%$%>%$%>%$%>>>%$$$$>;;",
"1>*$$%:>>%$$%>%$%;%$$%;;;%$$$;::",
"1>>$%:::>%$$%;%$%::%$$%:::%%$>>>",
"1>>%*:::%$$%::%$$%*%$$$%>>>>%;;;",
"1>>;:::%$$$%>>%$$%>>%$$$%;;;;:::",
";;;:::%$$$%>>%$$$%>>%$$$$%:::::2",
":::::%$$$$%;;%$$$%>;:%$$$%:::::2",
":***%$$$$$%::%$$$%;**%$$$$%::::2",
":>>%$$$$$%:::%$$$%>>>%$$$$$%:::2",
":;;$$$$$$%**:%$$$$%;;;%$$$$$%*:2",
":::$$$$$%>>>;%$$$$%:::%$$$$$$>:2",
"333$$$$$%4444%$$$$%333%$$$$$$445",
"444$$$$%4433%$$$$$$%333%$$$$$667",
"333$$$$%333*%$$$$$$%443%$$$$$338",
"999999999900000999qqq0000009999w",
"999000000000000009999qqqqqq0009w",
"9000000000eeeeeeeeewwwwwwwwrrrrw"
};
