/* XPM */
static char *_e5c2b9ddaf7498485fefc3b94a89c6caAg9xD42ZCP7YGeg[] = {
/* columns rows colors chars-per-pixel */
"20 34 22 1 ",
"  c #C28569",
". c #B86F50",
"X c #C7CFDD",
"o c #E8B796",
"O c #D77643",
"+ c #E4A672",
"@ c #92A1B9",
"# c #100515",
"$ c #E69C69",
"% c #F6CA9F",
"& c #131313",
"* c #B4B4B4",
"= c white",
"- c gray52",
"; c #1A1932",
": c #424C6E",
"> c #2A2F4E",
", c #0E071B",
"< c #5D2C28",
"1 c #391F21",
"2 c #BF6F4A",
"3 c #571C27",
/* pixels */
"     ...XX o ...... ",
"O+O ....@X@#@@XX.  o",
"+  o.   O@#@@XXXX+o+",
"  o..  OOO@@@$$$$ X ",
". oo     X@@$@X%@X O",
"o + ++ .X@@$$&&%&+OO",
"+      XX@@@$$$%$++ ",
"o ++  XX@@@@X$XXX+  ",
"o.O  +XX@o*@@X@@@X+ ",
"++.. XX@+ o*@@@XX@++",
"+o+. XX@    *@@@X@..",
" + .XX@@+ +*=*@@@@..",
"  ++XX@. .*-*=*@@;++",
"   o@@@.. *--*-:>;++",
" ...@@...*--*-::>;;o",
"  . +@  .*-**-:>>;;.",
" .  ++  .*---::>>;;.",
".. +     *:,,:>>>;;O",
"..   .  .*,,,,,,,,;;",
"..... . <1,,>>>;;;11",
"   . .. <1@@>>>;;;11",
" o  + ..%$$>>>>;;;;2",
"o      3%%$::>;;;;;2",
"+OO   333>>::>;;;;;.",
"O++  333>>:::>;;;;;.",
"O++ 333>>>::>>;;;;;O",
" +3333+>>>::>;;;;;;O",
"+333..o>>:::>;;;;; +",
"33 O.+ >>::>>;;;;;  ",
"     ++O>>>> ;;;;   ",
" +O   ..<<1   11 +..",
"+O+.....<<1...11+...",
" +O   .<<1.   111+..",
"+O+....111....1111.."
};
