/* XPM */
static char *f1b91f29ae5343f18ce0425538036460g4slZp0ma39NH3yp[] = {
/* columns rows colors chars-per-pixel */
"21 32 22 1 ",
"  c #C28569",
". c #B86F50",
"X c #C7CFDD",
"o c #E8B796",
"O c #D77643",
"+ c #E4A672",
"@ c #92A1B9",
"# c #100515",
"$ c #E69C69",
"% c #F6CA9F",
"& c #131313",
"* c #B4B4B4",
"= c white",
"- c gray52",
"; c #1A1932",
": c #424C6E",
"> c #2A2F4E",
", c #0E071B",
"< c #5D2C28",
"1 c #391F21",
"2 c #571C27",
"3 c #BF6F4A",
/* pixels */
"     ....XXo ......  ",
"O+O .... @X#@@XX.  o ",
"+  o.   O@#@@XXXX+o+ ",
"  o..  OOO@@@$$$$ X +",
". oo     X@@$@X%@X O ",
"o + ++ XX@@$$&&%&+OO ",
"+    XXX@@@@$$$%$++  ",
"o ++XXX@+@@@X$XXX+  .",
"o.OXXX@++o*@@X@@@X+ .",
"++XXXX@O+ o*@@@XX@++.",
"+oXXX@++    *@@@X@...",
" XXX@.. + **=*@@@@@.O",
" XX@.o.. .*-*=*@@@;++",
" @@o.....*---*-:>;;+.",
" .@......*--*-::>;;;O",
"  . +.  *.---::>>;;;.",
" .  ++  * :,,:>>>;;;.",
".. +    *@,,,,,,,,;;;",
"..   . <1@,,>>>;;;;11",
"..... .<1@@@>>>;;;111",
"   . ..%$$2>>>>;;;;33",
" o  + .%%$>::>;;;;;33",
"o     222>:::>;;;;;;.",
"+OO  222>>::>>;;;;;;.",
"O++ 222>>>::>;;;;;;;.",
"O+2222O>>:::>;;;;;;O ",
" 222OO+>>:::>;;;;;;OO",
"22+O..o>>>>>>;;;;; +O",
"+  O.+  <<1>.;11;    ",
"     ++O<<1   11    .",
" +O   .<<1.   111+...",
"+O+....111....1111..."
};
