/* XPM */
static char * idle1_xpm[] = {
"64 64 12 1",
" 	c #63965D",
".	c #78A04C",
"+	c #161C2E",
"@	c #4697AC",
"#	c #485884",
"$	c #8BA452",
"%	c #C8A876",
"&	c #D4EDC2",
"*	c #688C8A",
"=	c #EFE1AB",
"-	c #9CBEAA",
";	c #FFFFFF",
"   ...    .  +++++@@@@#####  .       ..   ...................  .",
"   ....     +++##@@@@@@@@@###..      .    ......................",
"......... +++######@@@@@@@@@##     ..    .......................",
"..........+++####@@@@@##@@@@@##   ..............................",
"......  ..++####@@@@@@@###@@@@#......................  .........",
"......   .++###@@@@@@@@@##@@@@##..............   ...   ...   ...",
".......  .+###@@@@@@@@@@@@##@@@#......   .  ..    .    .     ...",
".........++###@@@@@@@@@@@@###@@##   ..      ..              ....",
".........++##########@@@@@@##@@##    ..      ..            .....",
".........+############@@@@@##@@##.   ...     ..  ...   ......  .",
".........+#######+++++#@@@@@##@#+......................   ..   .",
".........+########++++##@@@@##@++...$$.................    .  ..",
".......++++#######+++++#@@@@###++$$.$$$..............$$    .....",
".....++++++########++++##@@@##+++$$.$$$.   ..$$..$$..$$$  .$$$..",
".. ++++###++######++++++##@###++%+%  $$     $$$.$$$$.$$$$.$$$$  ",
".  +++####+++#####++%%++######+%%%%%        $$$$.$$$$.$$$$$$$&&&",
"  +++######++####++%%%++######%%%%%%%      ..$$$..$$$$$$$.$&&&&*",
"  +++######++###++%%%%%+######%%%%=%%%....................&&&&**",
"  +++######++###++==%%%%%%%%%%%%==%%%%................&&&&--&-**",
"..+++#####++###++++%==%%%%%%%%====%%%%................&&&---&-**",
"..+++##########+++++++===========%==%%.........   ....&&&--&--**",
"...++##########++=+++++++++==========%%..  ....    .. &&&--&--**",
"...+++########++==%%%%%===============% .   ...  $ . &&&&&&---**",
"....++########++==%%%%%========+++====%%     ..  $$$&&&&&&&---**",
"... +++#######++=%%%%%%========+++====%% .       $$$&&&&&&----**",
"...  ++++###+++==%%%%%%========+++====%%+.........$&&&&&&&----**",
"..... +++++++++==%%%%%%=========++====+++......  .&&&-&&&&----+.",
"........+++++++=%%%%%%==========+++===+++.   ..   &&---&&&---++.",
"..........+++++=%%%%%%==========+++===++..        &&---&&----+..",
"............++==%%%%%%==========+++==+++$..       &----&&---++..",
"...++++...  ++=%%%%%%%=+++++++++++++++++++..    $&----&&---+++..",
"..++++++.   ++=%%%%====++++++++++++++++==+$$$$. +&----&----++...",
"..++;;+++   ++=%%%%%=====+++++++++++++===+$$$$$$++----&---+++$$.",
".+++;;++++ +++=%%%%%%%=====+++++++++++==%++$$$$+++---&----++$$$.",
".+++++;;;+++++%%%%%%%%%%%%=======+++==%%%++ $$+++---**----++$$..",
".+==++;;;;++++%%%%%%%%%%%%%======++===%%%%+ $$+++---**---++.....",
".+===+++;;;;++++++%%%%%%%%%%%%===++==%%%%%+  .++----*----++.....",
".+=@@=+++;;;;;;+++++++++++%%%%%==++==%%%%%+  .++---**---++......",
".+=@@@@======;;;;;;;;;;;++%%%%%==++==%%%%%+..++---**---+++......",
".+=@@@@@@@=====;;;;;;;;;++%%%%%==++==%%%%++..+----*----+++......",
".+=@@@@@@@@=======;;;;;@++%%%%%==++==%%%+++.++----*---+++.......",
".+=@@@@@@@@==========;@@++%%%%%==++==%%+++++++---**---+++.......",
".+=@@@@@@@@==========;@@++%%%%%======%++++++++***+*--*++ .......",
" +=@@@@@@@@==========;@@++%%%%%======+++++@+++**++****+  .. ....",
" +=@@@@@@@@==========;@@++++%%%%====++@@++@@@+++++***++  .  ... ",
" +=@@@@@@@@=%=========@@++++++%%%%%+++@@++@@@@++++***+ $$   ..  ",
" +====@@@@@=%%========@@++@@++++++++@@@+++++++####+++++++++..   ",
" +=====@@@@=%%%=======@@++@@@@+++++@@@+++++++++####+++++@@++.   ",
".+=======@@=%%%%======@@++@@@@@@@@@@@@++#++%%++++####++@@@++..  ",
".+=====%%=@===%%%=====@@++##@@@@@@@@+++##+%%++++++####+@@@++....",
".+=====%%%%=@@@@======@@++###############+%++%%%%+++++##@@++....",
"  +=====%%%=@@@@@@@===@@++###############++++%%%%+++++##@++.... ",
"  +=====%%%=@@@@@@++++@@++##############+++++%%%++..++++++...   ",
"  ++=====%%=@@@@@@@@++@@++##############++#+++%+++..$$++++.     ",
".  ++=======@@@@@@@@=+@@++############+++###++++...$$$.$$$$    .",
"..$++=======@@@@@@@@=+@@++###########++++####+$$$..$$.$$$$$.....",
"..$$++=====@@@@@@@@==+@@++########++++++++##++.$$..$.$$$$.......",
"..$$$+=====@@@@@@@@=++@++++++++++++++++$++++++..................",
"...$$.++===+@@@@@@=++@++++++++++++$++++++    .......   .........",
"......+++==+@@@@@=+++++.............$++++..........    .........",
".......+++=+@@@@==++++................+++.......  .    .........",
"..  ....++++@@@==+++++........   .....++........      ..........",
".   ......++@@=++++..   ......    .  .......................  ..",
"    ..   .+++=++++...    .....       .......................   ."};
