/* XPM */
static char * lidle5_xpm[] = {
"64 64 12 1",
" 	c #78A04C",
".	c #63965D",
"+	c #485884",
"@	c #4697AC",
"#	c #161C2E",
"$	c #8BA452",
"%	c #C8A876",
"&	c #D4EDC2",
"*	c #EFE1AB",
"=	c #688C8A",
"-	c #9CBEAA",
";	c #FFFFFF",
" ..                   ...  ....... .. ..+++++++..  .. ....   ...",
"                      .... ......  ..+++++@@@#####.......    ...",
"                       ....  .....++++@@@@@@@@@++###...         ",
"                              ...+++@@@@@@@@@@@++++##           ",
"         ..                     +++@@@@@@@@++++++++###  ..      ",
"   ...   ...   ...              ++@@@@++@@@@++++++++###...      ",
"   ..... .... ....  .. ...     ++@@++@@@@@@@@@@@@++++##..       ",
"    ..............  ......  ...+@@++@@@@@@@@@@@@@@+++##         ",
"     ............  ......  ...++@@++@@@@@@@@@@@@@@+++##         ",
" ..      ...   ..  .....   ...#+@++@@@@@++++++++++++++#         ",
" ...  ...                     #+@++@@@@@++####++++++++#         ",
"  .. ....                 $$  ##@++@@@@@+######+++++++#         ",
"     ....$$              $$$ $##++++@@@++#######++++++#         ",
"  $$$ ..$$$  $$  $$  ... $$$ $$###++@@@++####+++++++#####       ",
"..$$$$ $$$$ $$$$ $$$.....$$..%#####++@@+######++++++###### ...  ",
"...$$$$$$$ $$$$ $$$$........%%#%%##+++++###%###++++####++##.... ",
"&&  $$ $$$$$$$  $$$  .......%%*%%%#+++++##%%%##++++###++++##....",
"=&&&&&                     %%***%%%%++++%%%%%%##+++##+++++##....",
"=-&&&&&                    %%%**%%%%%%%%%%%%**##+++##+++++###...",
"=-&--&&&&                 %%%%%***%%%%%%%%**%####++##++++++##   ",
"=-&---&&&.    ...         %%**%%***********######++##++++++##   ",
"=--&--&&&..  ....    ..  %%%************####%%%*##++##+++++##   ",
"=--&&-&&&&.. .$..   ... .%%**************%%%%%%*##+++++++++##   ",
"=---&-&&&&.$$$$..  .....%%%****##********%%%%%%*###+++++++###   ",
"=----&&&&&&$$$$....... .%%****###********%%%%%%**##+++++++##.   ",
"=----&&&&&&&$$          #%****###********%%%%%%**###++++++##.   ",
"==---&&&&-&&   ..       ##****##*********%%%%%%**####+++###     ",
"##---&&&&-&&& ...  ...  ##***###**********%%%%%%*#########      ",
" #----&&---&&.........  ####*###**********%%%%%%**#####         ",
" ##---&&----&........  #########**********%%%%%%**##       ###  ",
"  #----&&---&&$$....  ###################*%%%%%%%*##..    ####  ",
"  ##---&&----&$$. $$$$##*################****%%%%*##...   ##### ",
" $###---&----##$$$$$$###***##########******%%%%%%**##.. ###;;;##",
" $$##----&---###$$$$$###%***#######*****%%%%%%%%%%*##. ###;;;###",
"  $###---=---###$$$$.###%%**####*******%%%%%%%%%%%*######;;;####",
"   ###---==---###$$$.##%%%%**###*****%%%%%%%%%%%%%*####;;;;###*#",
"    ##----=----##  ..##%%%%%*###*%%%%%%%###########;;;;;;##**@*#",
"     ##---==---##  ..##%%%%%*###*%%%%%%%#######;;;;;;;;##***@@*#",
"     ##----=----#    ##%%%%%*###*%%%%%%%##;;;;;;;;;;;*****@@@@*#",
"      ##---==---##  ####%%%%*###*%%%%%%%##;;;;;;;;;*****@@@@@@*#",
"      ###---=----## #@@@#%%%*###*%%%%%%%##@;;**********@@@@@@@*#",
"      ###---==---#########%%**##*%%%%%%%##@;;**********@@@@@@@*#",
"       ##---=#=--#####@####%*****%%%%%%%##@;;**********@@@@@@@*#",
"    .  .#====##==###@@##@@##****%%%%######@;;**********@@@@@@@*#",
".   .. .##===#####@@@###@@@##%%%%%########@;*********%*@@@@@@@*#",
"..  ...$$#===####@@@@####@@@##########@@##@;********%%*@@@@@@@*#",
"...  ###$######+@@@#######@@########@@@@##@@*******%%%*@@@@@***#",
"...###@#####++++##### ##+###@@@@@@@@++++##@@******%%%*@@@******#",
".. ##@@@##++++####%%####+++++++@@@@+++++#@@*****%%%***@*%%****##",
"   ##@@@#++++######%%##+++++++++++++++++#@@********@@**%%%****##",
"   ##@@##++####%%##%%##+++++++++++++++++#@@******@@@@*%%%%****##",
".   ##@++#####%%%%#####+++++++++++++++++#@@####@@@@@@*%%%*****#.",
"...  ######  ##%%%######++++++++++++++++#@@##@@@@@@@@*%%*****##.",
"..... ### $$ ###%###+###++++++++++++++++#@@#*@@@@@@@@*%%*****#..",
" ....$$$$ $$$ ######++#####+++++++++++++#@@#*@@@@@@@@*******##. ",
"     $$$$$ $$  $$#++++###################@@#**@@@@@@@@*****##$  ",
"       $$$$ $  $$##++#####################@##*@@@@@@@@****##$$  ",
"                 ######.###$$$#############@#**@@@@@@@****#$$$  ",
"         ...       ....####$$$  ... ..    #####*@@@@@#**## $$   ",
"         ....            $$$               ####**@@@@#*###      ",
"         .... ..                           #####**@@@####       ",
"          ......               ...           ####**@@###    ..  ",
"  ..                       .. ....      ...    ####*###     ... ",
" ...                       .......     ....   ..###### ...  ...."};
