/* XPM */
static char * renemy6_xpm[] = {
"64 64 15 1",
" 	c #78A04C",
".	c #63965D",
"+	c #161C2E",
"@	c #924159",
"#	c #E76161",
"$	c #8BA452",
"%	c #E8CE91",
"&	c #C8A876",
"*	c #947467",
"=	c #EFE1AB",
"-	c #CF9C71",
";	c #FFFFFF",
">	c #547F4F",
",	c #658841",
"'	c #768B46",
" ..           +++@@@@@@@.  ....... .. .....  ....  .. ....   ...",
"             ++++####@@@@@ ......  ....$.. $$............    ...",
"            ++@@@@@@#####@@@ ..........$$ $$$..... ....         ",
"           ++@@@@@@########@  ...    ..$$ $$                    ",
"         ..++@@@@#####@####@@                           ..      ",
"   ...   .+++@@@@#####@#####@                          ...      ",
"   ..... .+++@@@#######@####@@        $$  $$           ..       ",
"    ......++@@@@########@####@@      $$$ $$$$                   ",
"     .....++@@@#########@@###@@     $$$$ $$$$   $$              ",
" ..      +++@@@@@@@######@@@##@@    $$...$$$$$ $$$              ",
" ...  ...+++@@@@@@@@@#####@@##@@      ....$$$$$$$               ",
"  .. ....++@@@@@@++@@@####@@##@@$$     ....                     ",
"     ....++@@@@@@+++@@@####@###@$$                              ",
"  $$$ +++++@@@@@@@++++@@####@##+$$                              ",
"..$$$$++++++@@@@@@+++++@####@@@+$                   ...    ...  ",
"...$$+++@+++@@@@@@@++++@####@@++              ....  ....   .... ",
"..  $++@@@+++@@@@@@++++@####@@+++             ...........   %%%.",
"..  ++@@@@@++@@@@+++&+++@@@@@++&&+&&          ....$$.....%%%%%*.",
".  +++@@@@@++@@@@++&&&++@@@@@+&&&=&&           ...$$$..%%%%%--*.",
"   +++@@@@@++@@@++&&&&&+@@@@@&&&&==&&             $$$ %%%%-%--* ",
"   +++@@@@@++@@@++&&&&&&@@@@&&&&===&&              $$$%%---%--* ",
"   ++@@@@+++@@@++++&==&&&&&&&&===&&&&&.              %%%--%---* ",
"   ++@@@@@@@@@@++++++===========&&==&&.             %%%%%-%---* ",
"   +++@@@@@@@@@++++++++++++=========&&&$$$          %%%%%-----* ",
"    ++@@@@@@@@++=&&&&&&==============&&$$$$ $$     %%%%%%%----* ",
"    +++@@@@@@+++=&&&&&&========++====&&&$$$$$$..   %%%%%%%----* ",
"     +++@@@@@+++=&&&&&&========++====&&&$$ $$...   %--%%%%---** ",
"      +++@@@+++==&&&&&&========+++====&&     ..   %%--%%%%---+  ",
"       ++++++++==&&&&&&=========++====++         %%----%----++  ",
"       ..++++++=&&&&&&==========+++===++         %%----%---+++  ",
"    ++   ++++++=&&&&&&==========+++==+++        %%%---%----++   ",
"   ++++  $$$++==&&&&&&==========+++=++++     .. %%----%---+++   ",
" $++;;+++$$$++=&&&&&&&=+++++++++++++++++++.  ..++----%%---++    ",
" +++;;+++$$$++=&&&&====++++++++++++++++=++.....++---%%----+.    ",
" ++++;;;+++$+==&&&&&====++++++++++++++==++.....++---*%---++.    ",
" +++++;;;++++==&&&&&&======++++++++++===+++  .++---**----++.    ",
" +===+++;;;;+++++&&&&&&&&=======++++==&&+++  ++----*----++      ",
" +=##=+++;;;;;;++++++++++&&=====+++==&&&&++  ++----*---+++      ",
" +=###===+;;;;;;;;+++++++&&&&===+++=&&&&&++  ++--------+++      ",
" +=####======;;;;;;;;;;;+&&&&&&=+++=&&&&&++ +++---*----++       ",
" +=########=======;;;;;#+&&&&&&=+++=&&&&&+++++---**---++        ",
" +=########==========;##+&&&&&&=+++=&&&&+++++---*+*---++..      ",
" +=########==========;##+&&&&&&=+++=&&&&+++++--*++*---+...      ",
" +=########==========;##+&&&&&&=++==&&++++#+++*++****++..     ..",
".+=########==========;##+&&&&&&=====&++++++#+++++***+++.   .. ..",
".+=########=&========;##++&&&&&=====+++#+++###++++**++    ......",
".+==#######=&========;##++++&&&&====++##+++####+++++++ +++......",
".+=====####=&&&======###+#++++++++++###++++++++@@@@++++##++.....",
".+=======##=&&&&=====###+###++++++++##++@++&++++@@@@+++###+...  ",
" +=====&&##==&&&&====###+@@@##+++++#++++@+++++++++@@@++###+     ",
" +=====&&===#========+##+@@@@####@@@@@@@@++++&&++++@@@+###+     ",
". +=====&&&=#######==+##+@@@@@@@@@@@@@@@++++&&&&++++++@#++.   ..",
"..+=====&&&=######++++##+@@@@@@@@@@@@@@@++++&&&+++.+++++++.   ..",
"..++=====&&=########++##+@@@@@@@@@@@@@@@+@@++&&++....++++.. ....",
" .++=====&&=########=+##+@@@@@@@@@@@@@@++@@+++++  .....$$...... ",
"   ++====&==########=+##+@@@@@@@@@@@++++@@@@++        $$$$..$$  ",
"    ++===&=########==+##+@@@@@@@@@+++++++@@++     $$$ $$$$ $$$  ",
"     +=====########=+##++++++++++++++++++++++     $$$$ $$$ $$$  ",
"      ++===+#####==+++++++++++++++>,++++,,$$$ $$    $$  $$ $$   ",
"      +++==+#####=+++++,,''',,,,,,,,,+++,,,$$$ $$               ",
"       ++==+####=+++++,,,,,,,,,,,,,,,+++,,,                     ",
"        ++++###==++++,,,,,,,,,,>>>,,,++++,,                 ..  ",
"  ..     +++#==++++,,,,,,,,>>,>>>>,,,,,,>>>    ...          ... ",
" ...      +++=++++,,,,,,,,,>>>>>>>,,,,,>>>>   ....     ...  ...."};
