/* XPM */
static char * tree2_xpm[] = {
"64 64 12 1",
" 	c #63965D",
".	c #78A04C",
"+	c #8BA452",
"@	c #2D8381",
"#	c #68D367",
"$	c #37AE7B",
"%	c #161C2E",
"&	c #315A6D",
"*	c #685151",
"=	c #568354",
"-	c #798F4B",
";	c #688C47",
"   ...    .  ..    ..     .  .       ..   ...................  .",
"   ....            ++.  +    ..      .    ......................",
".........    .     +++.++       @  ..    .......................",
"....................++.++  .... @ ..............................",
"......  ........................#....................  .........",
"......   .......................#@............   ...   ...   ...",
".......  ...........++..++......@@....   .  ..    .    .     ...",
"...................++++.+++.....##@ ..      ..              ....",
"..............++...++++.++++...@##@  ..      ..            .....",
"..............+++.+++++   ++...@#$#@ ...     ..  ...   ......  .",
"...............+++++++    ....@@###@...................   ..   .",
".....................    ....@@#####%+.................    .  ..",
"...........................@@%@#$#$#%%%..............++    .....",
"............................%$##$####%+.   ..++..++..+++  .+++..",
"..   ....   ...............%$@#####%##%%    +++.++++.++++.++++  ",
".    ...    ..    .......%%%%##$#$##%$##%%  ++++.++++.+++++++   ",
"    ...           .........%###$$$$##%$##% ..+++..+++++++.++..  ",
"    ..      ++    .......%%#%%$$$$$###%%%.....................  ",
"   .....   +++   ...........%$$$$$$%%%%........................ ",
"...........+++.............%%$$$$$$%$%%.........................",
"..........+++.............%%$$$$$$$$$$%%%......   ....   .......",
".......................%%%%$$#$$$$$$#$$%@%%....    ..    .......",
".......................%@%$#$#$$$$$$##$$%@@%...  + .      ......",
"....  .  .............%%%##$#$$$#$$$$##$$%%  ..  ++++      .....",
"...      .   .....++.++%#####$#$##$##$###$$%     ++++  .    ....",
"...          ...  ++++%###%#######$#$###%##%%%....++............",
".....       ....   +%####%#########$#%###%%....  ...  ..........",
".................  ..%#%%#####%####$%#%%%%%% ..   .    .........",
"........................%%%%##@#%@##@%#@@%              ........",
".......................%%%@##%@@@@@@@@@@@%.        .     .......",
"..........  ........%%%@%@%%%@@@@@@@@@@@@@%.    ++ ..++.........",
".........   .. ..  ..%@%%@@@@@@@@@@@@@@@$@%%%%. +++.+++.........",
".....  ..      .   .. %@@@@@@@@@@$@@@@@@$$@%%++++++++++.++...++.",
"....    ..   +++     %%@@$$@@@@@@@@@$@@@$$$@@%%+++++++++++..+++.",
"....    .++  +++ %%%%@@$$@$$@@@$@@$@$@@@@$$$%@@%+  ++..+++..++..",
"....   ..++.+++   %$$$$$$$$$$$@$@%$$@$$$@%$$$%%+   .............",
"..........+.+++.  .%$$$@@%$$$$@$@@$$$$$$$@%$$$$%% ..............",
"...................%%%%%%$$$$$$$$$%$$$$$@$@%$$$$$%..............",
"....................%%%%$$$$$$$$$$$%$%$$$%$@%%$%................",
"..................%%@%&&%%%$$$@$%$$%%%$$@$%%%%%.................",
"................. %@%&@&&%$$&$$%&%$$%$%$$$$%%%%%%...............",
"......   ........ %%&&&&%$%%&&$&&&%$%&&%%&%&&%%%................",
"......    ......%%&&&@&&&&&&&&&&&&&%$%&&&&&&&&&%%   ...  .......",
"  .....   ....%%&&&%&@&&&&@@&&&&&&&&&&&&@&&&&%&&&&%  .   .. ....",
"  .  ...  .   %&&&%&@&&&&&@&&&&&&&&&&&&&@&&&&&&%%%%      .  ... ",
"      ....    ..%%&@&@@@&&&&&&&&&&&&&&&&&@&&@&&&&%%%   ++   ..  ",
"      ....   ..%&@@@@@@@&@&@&&&&&@&@&@@@&&&&@&@@@%%%  .+++...   ",
"      ....  .%%@@@@%@@@&&@&@&&@@@@@@&&@@@@@@&&&@@@@@%...++...   ",
"..   .........%@@%%@@@&@@@@@&@@@@@@&@&@@@&@@@&@@@@@%..........  ",
"..............++%%@@@%&@@@@@&@@&@@@@@@%@@@@@@%@@%%%.............",
".....   .....+++%@@@%&@@&@@&@@@@@@@@&@%@@@&@@@%@@@%.............",
"  ...    ....++.%%%%@@%@@@@%@@@@@@@@@@%@@@@@@@@%%%............. ",
"  ...     ..   ..  %%%@@@@%@@@&@@%@@@@@%@@@@%@@%%............   ",
"    .     .    ... %%@@@@%@@@%@@@@&@@@@%%@@@@%%%....++..++.     ",
".      ++     .....@@%%%%@@@@%@%%@%&@@%%%%@@@@%+...+++.++++    .",
"..++  ++++.............%@@@%%@%%%%@%%@@%  %%%%+++..++.+++++.....",
"..+++.++++.+++........%@@%%%%@%**%%%%%%%% .   .++..+.++++.......",
"..+++.+++.++++......++.%% ==%%%****%**--      ..................",
"...++.++..++....++.+++.;.;==%*********%%;=   .......   .........",
"...............++.+++....;;%**%******%*;;;.........    .........",
"........................;;;*%%*%%*%*%*%;;;......  .    .........",
"..  ....................;;;;;;*%*%*%%%;;;;......      ..........",
".   ..........   ....   .;;;;;====;==;;;..;.................  ..",
"    ..   .....    ...    ..;.;=======;;;....................   ."};
