/* XPM */
static char * destra_xpm[] = {
"64 64 9 1",
" 	c #78A04C",
".	c #63965D",
"+	c #8BA452",
"@	c #4C6B4F",
"#	c #506A69",
"$	c #669D9D",
"%	c #8CC3C4",
"&	c #456052",
"*	c #161C2E",
"                                .. .                   +.@@@#$$#",
".         .. ..  .       ...   ........         .. ..  ....@@$$#",
"           .. ...... .. .  ... ...               .. .......@$$$#",
"     +    . . ...+.. ....   ..             +    . . ...+..%.%$$#",
" .++ ++.. ..     +  .....   .        + .++ + .. ..   ++ +....$$#",
"+.+++..+                      + ++   ++.+++.++         +...@&&**",
"++ ++..+                 ..   + +++  +++ ++.++         +...@&#**",
"                    ...  ... .. ..                      +.....&*",
"     .  .  +  ++ ++..  ...+...             .  .  +  ++ ++.....&*",
". .. +..... + ++++     +++++++       .. .  +..... + ++++.&&...&#",
"....++.+...            ++++ ++    +  .... ++++...      ...&&..&#",
"     ++       ...              + +         ++       ...++..&&&&*",
"  ..        ....       .                .         ....  +.&....&",
"  .. .              .  .      ..  ..    .. .           +.+.....&",
". .... ..           . .. ..... .. ... . .... ..        +++.....&",
"..... ..                   ......++ +...... ..      . .&&&&&..&&",
"  ..                              + +.  ..          ....&..&&&&*",
"           ..  .. ..     ..                      ..  .. ....&&#*",
"    .  ... .........             +++++   .. .... ...... +++&..&#",
"+   .. .... .......           +  ++++++  ... .... .. ...++.&..&#",
"                 .  .          ++++..                    ++...&#",
"  +++++        ++..                     +++++        ++.+++.&&&#",
"  +++++ .  + + ++. ++                   +++++ .  + + ++.+...&&&#",
"    ......++ ++ ++++.. ..  .. ...         ......++ ++++++.&&$$##",
"    .                ... ....+...         .            +...*$$$#",
"                            ++                       +++...**$$#",
" .          ..  ..          ++         .          .. +....****$#",
"..+    ...  .+ ...                   ...+   ....  .+ .........*#",
"+++ .  . ....++.....    ... ..   ++++++++.. .. ....++.+. .....**",
".+ ..         +         ...... ..+++.+.+ ..         ++++   ...**",
".        .. .....               .    ..        .. ..+..+.....*#*",
"    +  + ..... ...                        + ++ ...++..........**",
"    ++ ++ ..++ ++           .             ++++   .++....&&....**",
"  ++ +++++++++++++  +    . ...... ..    ++ ++++ +   ......&..***",
"   + ..+..+++.+  +  +   ...+..+.....     + ..+.++...@@@..@@*****",
"     .....++..          .. + ++.. .        .....++..@@@@@@@...**",
"         ..                                  . ..+............##",
"                                 .            .   ..  .....@..##",
"                                .. .                 ......@$$##",
".         .. ..  .       ...   ........      + ++. ..  .....$$$#",
"           .. ...... .. .  ... ...            +++.  . ..+.&&&&$#",
" .   ++ . ..   . +  .....   ..         .   +  . ..++  +++....&$#",
" .++ ++.. ..     +  .....   .        + .++ + .. ..++   +.....&#*",
"+.+++..+                      + ++   ++.+++.++     + +++....&&**",
" +  ..               ..  ..   + .+++   +  ..           ..&&&&&#*",
"                    ...  ... .. ..                     ..&&&&&&*",
"     .  .  +  ++ ++..  ...+...             .  .  +  ++ ++.....&*",
". .. +..... + ++++     +++++++       .. .  +..... + +++++.....&#",
"....++.+...            ++++ ++    +  .... ++++...      +.  ...&#",
"     ++       ...              + +         ++       ...+ + .&&&*",
"  ..        ....       .                .         .... ++......&",
"  .. .              .  .      ..  ..    .. .           ++......&",
". .... ..           . .. ..... .. ... . .... ..        +.+.....&",
"..... ..                   ......++ +...... ..         +++.&..&&",
"  ..                              + +.  ..              +...&&&&",
"           ..  .. ..     ..                      ..  ..+......&*",
"    .  ... .........             +++++   .. .... ........+..&&&#",
"+   ..  ... .  ..   .         ++ +++.++   ..  ... .  . +++....&#",
"                 .  .          ++++..                  ++.+...&#",
"  +++++        ++..                     +++++        ++..+...&&#",
"  +++.+...+++++++++++. ..  ..           +++.+...++++++++...@@@##",
"    ......++ ++ ++++.. ..  .. ...         ......++ ++  +....@@$#",
"    .                ... ....+...         .           ++ ...@@@#",
"                            ++                       ++.....$$$#"};
