/* XPM */
static char * angoloid_xpm[] = {
"64 64 12 1",
" 	c None",
".	c #78A04C",
"+	c #8BA452",
"@	c #63965D",
"#	c #456052",
"$	c #506A69",
"%	c #4C6B4F",
"&	c #669D9D",
"*	c #8CC3C4",
"=	c #161C2E",
"-	c #C6F0DB",
";	c #458597",
"..+++++........++@@.....................+++++........++@@+@@@##$",
"..+++@+@@@+++++++++++@.@@..@@...........+++@+@@@++++++++@@@%%%$$",
"....@@@@@..+..++++++.@@@..@@@@@@@.........@@@@@..+..+..+@@@@%%%$",
"....@................@@@.@@@@+@@@.........@...........++.@@@%%%$",
"............................++.......................++@@@@@&&&$",
".@......@...@@.@@@...................@.@......@...@@+.@@@@@%**&$",
"@@+....@@@..@+.@@@...................@@@+...@@@@..@++@@@@@@%@*&$",
"+++.@..@.@@@@++@@@@@....@@@.@@...++++++++@@.@@.@.@++@@%%@@@@@@$$",
"@..@........@..@.........@@@@..@@+.+@@@..@........@@@%%%%%%%$$$$",
".........@@@@@@@@..............................@@@@@@@@@%%@@%##$",
"....+..+.@@@@@.@@@........................+..+.@@@@@@@@@@@@@@@##",
"..++++.++++.++.++..........@@.@.@.......+.+++++++.@@+@@.+@@@@@##",
"..++.+++@+++++++++..+...@@@.@@+@@@@@....++.+++@+++...++++@@@###=",
"...+.@@+@@+++@+..+..+...@@@+@@+@@@@@.....+.@@+@@++.@.+++@@@@##$=",
"......@.@@@.@@...............++@@...........@.@@@@@@....@@@@@@#=",
"..................................................++.++@.@@@@@#=",
".................................@.........+...+..+++++@.@#@@##=",
"@.++......@@.............@@.....@@@@.@@.....++++@@..+@@.@@@@##$=",
"..+...+....@.@@.@@.@..@...@@...@@@@@.@......+++@@@..@@@@.@@@@=$=",
"+....++....@@.@@@@@@.@@.@..@@@.@@@.++...+..++++++@..@@@@@@@@@===",
"+@++.+++@.@@..+@.+..@@@@@...@@+...++.++@.+++++++@@@@@@@@@@@@====",
"+@@++##@@@@@.++++....@.@@...+++@@@++++@@+++++@@@@=@@@@@@@===%%==",
"++@@##@@@@@..@@@+.+++++....+.++@@@+++@@@@++@+@@@@=@@@@=@@@==%%$=",
"+@@@#@@@@#@@@@@@@@@++@@.+@@++++@@@@@@@@@@@@@@@@@@==@@==@@@@=&&$=",
"@@@@@####@@@##@@%@+#@@@@+@@@@@@##@%%@@@%@@@@@@=========@@@==&&&=",
"@%@@@##%##@@##%%%##@@##@@@@@#@@@@#@@@@@%@@@&@@%%%%%*%%=====$&&$=",
"@%@@@##%$####%%%%###@#@@@@@@#@@@@#@@@@%%@@@&%%%%%%**%%%===%$&&$=",
"**###&&&&%%%&%%%%%###@@@#@@@######*@@%%&%%%*%%%**&&&&&&%%%%$$$$=",
"*&******$%%%**%%*%%%&########**%%%&&%%&&&*************&&&***$$==",
"&*******==$***%***%%&###%###****%***%**&&*************&&****$===",
"********===*******&&****$==$$&*******&&&&***********&&&****$$$= ",
"******&&$==$&&&&&&*****$$=$$&&&&&&&&&&&$===*******&&&&***&&$=== ",
"*****&&&$$$$&&&&&&****&&$$$$&&&&&&&&&&**$===*****&&&&&&&&&&==== ",
"&&&&&&&&&$$$&&&&&&&&&&&&$$$&&&&&&&&*****$=$&&&&&&&&&&&&&&&&$$== ",
"&&&&&&&&&$$&&&&&&&&&&&&&&$$$&&&&&&&&&&&&$=$$&&&&&&&&&&&&&&&$$== ",
"&&&&&&&&&$$&&&&&&&&&&&&&&$$$&&&&&&&&&&&&$$$&&&&&&&&&&&&&&&$$=== ",
"&&&&&&&&&$=&&&&&&&&&&&&&&$=$&&&&&&&&&&&$$$$&&&&&&&&&&&&&&$$===  ",
"&&&&&&&&&$=$&&&&&&&&&&&&&==$&&&&&&&&&&&$$$$&&&&&&&&&&&&&$==$==  ",
"&&&&&&&&&$=$$$&&&&&&&&&&&==$&&&&&&&&&&&$$$$&&&&&&&&&&&&&$$$$==  ",
"&&&&&&&&&==$*$$$$&&&&&&&$==$&&&&&&&&&&&$$=$&&&&&&&&&&$$***$$==  ",
"&&&&&&&&$==$********&&&&&$=$&&&&&&&&&$$$$=$$$&&&&&*******&$$==  ",
"&&&&&&$$$&$=&&***&&&&&&&&$=$$&&&&&&&&&&&==$&&&&&&&&&&***&$$$==  ",
"&$$$&$$$&&$=&&&&&&&&&&&&&$=$$&&&&&&&&&&&=$&&&&&&&&&&&&&&&$$$=-  ",
"&&&&&&&&&&$=$&&&&&&&&&&&&$=$&&&&&&&&&&&$=$&&&&&&&&&&&&&&&$$$=-; ",
"&&&&&&&&&&$=$&&&&&&&&&&&&$=$&&&&&&&&&&&$=$&&&&&&&&&&&&&&&$$==-; ",
"&&&&&&&&&&$=$$&&&&&&&&&&&$=$&&&&&&&&&&&$=$&&&&&&&&&&&&&&$$$==-; ",
"&&&&&&&&&&$=$$&&&&&&&&&&&$=$&&&&&&&&&&&$$&&&&&&&&&&&&&&&$$$==-; ",
"&&&&&&&&&&$=$$&&&&&&&&&&&$$&&&&&&&&&&&&$$&&&&&&&&&&&&&&$$$$=--  ",
"&&&&&&&&&&$=$$&&&&&&&&&&&$$&&&&&&&&&&&&$$$&&&&&&&&&&&&&$$$$=--  ",
"&&&&&&&&&$$=$$&&&&&&&&&&&$$&&&&&&&&&&&&$$&&&&&&&&&&&&&&$$$$=--  ",
"&&&&&&&&$$$=$$&&&&&&&&&&$$$&&&&&&&&&&&&$$&&&&&&&&&&&&&&$$$$=--  ",
"&&&&&&&&&&$=$$&&&&&&&&&$$$$&&&&&&&&&&&&$$&&&&&&&&&&&&&&&&$$=--  ",
"&&&&&&&&&$$=$$&&&&&&&&&**$$$&&&&&&&&&&&$$$&&&&&&&&&&&&&$$$$=--  ",
"&&&&&&&$$$$$$$&&&&&&&***$$$$$$&&&&&&&&&$$$$&&&&&&&&&&$$$$==---  ",
"&&&&&&&$&&$$$$&&&&&&&&&$$$$$&&&&&&&&&&&$=$$$&&&&&&&&&$$$===---  ",
"&&&&&$&&&&&$$$$&&&&&&&&&$$$$&&&&&&&&$$$$=$&&&&&&&&&&&$$$$==---  ",
"&&&&$&&&&&$=$$$&&&&&&&&&$$$$&&&&&&$$&&&$=$$&&&&&&&&&$&&$$-----  ",
"$$$&&&$$$$$=$&&$&&&&&&&$$$-$$$&&&&&&&$$$-$$$&&&&&$$&&&&$$-----  ",
"&$$$$$$$$$$-$&&&&$$$&$$$$$-$$$$&&&&$$$$$-=$$$$$$$&&&&&$$-----   ",
"$$$$$$$$$$---$&&&&$$$$$$$---$$$$$$$$$$$----$$$$$$$$$$$$------   ",
"$$$$$$$$-------$$$$$$$$$-------$$$$$$-----------$$----------    ",
"$$$$$$--------;$$$$$$$----------$$$------;$-----------------    ",
"---------------------------------------------------;;;;--;      ",
"-------;------------------;;;;;-------------;;---------;;       "};
