/* XPM */
static char * collectibles_xpm[] = {
"64 64 22 1",
" 	c #63965D",
".	c #78A04C",
"+	c #8BA452",
"@	c #000000",
"#	c #EC9E19",
"$	c #70615D",
"%	c #EEBA50",
"&	c #EDBB33",
"*	c #564243",
"=	c #B25C12",
"-	c #814C21",
";	c #842711",
">	c #D23813",
",	c #3C2926",
"'	c #DE7C12",
")	c #F7D872",
"!	c #B01C0C",
"~	c #918082",
"{	c #CB872A",
"]	c #D7B291",
"^	c #E5D699",
"/	c #1E191A",
"   ...    .  ..    ..     .  .       ..   ...................  .",
"   ....            ++.  +    ..      .    ......................",
".........    .     +++.++          ..    .......................",
"....................++.++  ....   ..............................",
"......  .............................................  .........",
"......   .....................................   ...   ...   ...",
".......  ...........++..++............   .  ..    .    .     ...",
"...................++++.+++......   ..      ..              ....",
"..............++...++++.++++.....    ..      ..            .....",
"..............+++.+++++   ++......   ...     ..  ...   ......  .",
"...............+++++++    .............................   ..   .",
"...........  ..     .  ..   . .    ..  ............ ...    .  ..",
".................      ++.+       .   ...............++    .....",
"........................+.+  ..  ....................+++  .+++..",
"..   ....  ....  ........................  ..  ..  ..++++.++++  ",
".    ...   ..... .......+..+........  . .      .   ...+++++++   ",
"    ...    .........+..+++.++....  ..    .        ...++++.++..  ",
"    ..     .........++.+++  +....  ..    . ..  .... ..........  ",
"   .....   ..............  ....++..+...........     ........... ",
"...............................@@+.++.........+   ..............",
"..........+.  ...  .@.........@##@ ++   ++@@+.++.+++ .   .......",
"...........   ..  @$$@@@@@@@@%#&&#%@@@@@@@@$$@++.+..     .......",
"...........   .   @**=--@;;>>&&&&&&>>;;@--@**@......      ......",
"....  .  .........@,*@-'&@>>>%####%>>>@&'-$*,@.......      .....",
"...      . .......@@,$@''%@>>)####)>>@%''@*,@@  .....  .    ....",
"...        ......@!!!,*=''%))%&&&&%))%''=*@!!!@  ...............",
".....      ... . @!>!@,-=''&%)%##%)%&''=-,!!>!@   ... ..........",
".............   @!>>>>!--=%,--~~~~--,%=--!>>>>!@.....  .........",
"..............  @!>>>!!--{{--~]~~]~--{{--!>>>>!@.....   ........",
"..............@*@!>>>>@@@@*$${&%%&{$$*@@@@>>>>!@*@...    .......",
".......... ...@$@;>>>>@-=@*${&&))&&{$*@=-@>>>>;@$@...++.........",
".........  ...,$@*$$*$@{%@*{#))^^))#{*@%{@**$$*@$,...++.........",
".....  ..  ...,*@**$$$@{{@${{)^^^^){{$@{{@$$$**@*,.+.++.++...++.",
"....    .. ...,*@;!!!>>>>@~##)^%%^)##~@>>>!!!!;@*,++.+++++..+++.",
"....    .++...,*$@!!>>>'>@${{)%##%){{$@>'>>>!!@$*,.....+++..++..",
"....   ..++...@,*$;!!>>''@~{{%&##&%{{~@''>>!!;$*,@..............",
"..........+....@*$@!!>>>>@~${#&&&&#{$~@>>>!!!@$*@...............",
"................@*$@!!!>>>@~$##&&##$~@>>>!!!@$*@................",
"...............  @$$;!!>!>!$~'####'~$!>!>!!;$$@.................",
"........... ....  ,*$;!>>!!!@*=''=*@!!!>>!@$*,  ................",
"........... . ..  ,**@!!!!!!!**==**!!!!!!!$**,  . .. ...........",
"......   ..    ..@**//@!!!!!!;@**@;!!!!!!@//**@++..  ...........",
"......    ..  ...@@////@;!;@@@@@@@@@@;!;@////@@..... ..  .......",
"  .....   .......@//////@@@+++ ++++ +@@@//////@.......   .. ....",
"  .  ...  . ..   ...+. +++...++..  .................     .  ... ",
"      ....  ..    .  .  ...........................    ++   ..  ",
"      .... .    +   .............. ..  ..+..++.+++  . .+++...   ",
"      .... .++ +++.........  .....  .  ..++.++++++......++...   ",
"..   .......++.++.++....+..      ++ +    .....................  ",
".............+.+..+..++++... .  .++++.   ....  .................",
".....   ..................................     .................",
"  ...    ...  .................  .........    ................. ",
"  ...     .   .  ...   ..  ....    ...............  .........   ",
"    .     .    ...  ................................++..++.     ",
".      ++     .....................  ...   ...++...+++.++++    .",
"..++  ++++...............   .......   .    ...+++..++.+++++.....",
"..+++.++++.+++...........    .   ..++     .   .++..+.++++.......",
"..+++.+++.++++......++...        .+++ ++      ..................",
"...++.++..++....++.+++....  .   ..++++++.    .......   .........",
"...............++.+++...............+++............    .........",
"................................................  .    .........",
"..  ..........................   ...............      ..........",
".   ..........   ....   ......    .  .......................  ..",
"    ..   .....    ...    .....       .......................   ."};
