/* XPM */
static char *_2a37d2e61ab49dbf6bd1607e71715d0qP9G68vFwLeZCfy9[] = {
/* columns rows colors chars-per-pixel */
"32 32 67 1 ",
"  c #040200",
". c #0E0800",
"X c #130B01",
"o c #140C01",
"O c #190F01",
"+ c #180F06",
"@ c #1B1101",
"# c #1C1307",
"$ c #231702",
"% c #241909",
"& c #241B0D",
"* c #291C0B",
"= c #2C1F0B",
"- c #291D0C",
"; c #2D200E",
": c #35270D",
"> c #2F2312",
", c #332511",
"< c #392B12",
"1 c #382914",
"2 c #3F311A",
"3 c #423316",
"4 c #433414",
"5 c #41311B",
"6 c #4A3A1A",
"7 c #48391C",
"8 c #46332D",
"9 c #53421F",
"0 c #554420",
"q c #5D4C26",
"w c #52412A",
"e c #56462A",
"r c #5A4A2A",
"t c #574830",
"y c #5F4F32",
"u c #6A582F",
"i c #685730",
"p c #6B5A32",
"a c #685837",
"s c #705D36",
"d c #736239",
"f c #76653C",
"g c #736341",
"h c #796841",
"j c #78694D",
"k c #7F7053",
"l c #827242",
"z c #817147",
"x c #85744B",
"c c #86734D",
"v c #847655",
"b c #8D7F50",
"n c #928258",
"m c #95865D",
"M c #9F8D5C",
"N c #928364",
"B c #9A8A64",
"V c #A0926A",
"C c #A39669",
"Z c #B3A97C",
"A c #B7AE82",
"S c #B9AD89",
"D c #C9BB8F",
"F c #CEC8A3",
"G c #E3E0C0",
"H c #FFF9DE",
"J c white",
/* pixels */
"88888888888888888888888888888888",
"88888888888++++++++++88888888888",
"888888888++SGGHHHHHHG++888888888",
"88888888+nSGGHHHJJJJHHH+88888888",
"8888888+nSGGHHHJJJJJJHHG+8888888",
"888888+nSSGGHHHJJJJJJJHHG+888888",
"88888+nnSGGGGHHHJJJJJHHHGG+88888",
"8888+xnSSSGGGHHHHHJJHHHHGF+88888",
"8888+nnSSSGGGGHHHHHHHHHGFFG+8888",
"888+dnnnSSVGGGGGHHHHHGGFFHH+8888",
"888+ddnnSSSVNGFHHHGFFGGHHJJ+8888",
"888+ddnnnSSSmvHHHJJHGFHGGGGG+888",
"888+9dnnnnnmzgHGGZZHHGGS...S+888",
"888+9ddnnnnffrGn....AGA.#%% 8888",
"888+99ddnnffrSn.#%%>$GH.%>2 8888",
"8888+9dddqfq7G.#%>2t$HJ.>2t 8888",
"8888+99dqqq6<G.#>2t$GHHJ.X@H+888",
"8888+4999q7<SGn.X$$SGHS@OGHJ+888",
"8888+44393dnGGGnnSGGGmo2$HJH+888",
"88888+:4:=;nZHHJJJHGm.&o@GHH+888",
"88888+:44*4--jDHHHHHZf.noGH+8888",
"888888+:4*qul-,,yjNGGSfASGG+8888",
"8888888+:4;qZ*991cGkGGSGGBF+8888",
"88888888++;qC,ule1ZsGZGBGc+88888",
"8888888888+qxZ5nwS11ZsZhZ1Z+8888",
"8888888888+qpnZeFGcS11111ZG+8888",
"88888888888+0dnZaZGGcShGcGG+8888",
"888888888888++qddxZZGGGGGGH+8888",
"88888888888888+++iddZZZFGHH+8888",
"88888888888888888+++dbMM+++88888",
"88888888888888888888++++88888888",
"88888888888888888888888888888888"
};
