/* XPM */
static char * house_xpm[] = {
"64 64 17 1",
" 	c #78A04C",
".	c #63965D",
"+	c #65323B",
"@	c #C06D50",
"#	c #8D4848",
"$	c #161C2E",
"%	c #8BA452",
"&	c #924159",
"*	c #DE5454",
"=	c #D5AA60",
"-	c #F4A47B",
";	c #BBAE93",
">	c #E1DCA3",
",	c #BCA986",
"'	c #688B45",
")	c #568353",
"!	c #798F4A",
"   ..                                       +++@+       ..      ",
"   ..                                       +++@+       ..      ",
"   ...                                   +++@@@#@@$   ....   ...",
"    ..            %%%  %%              ++@#@#@@@@$$. ..... .....",
"                 %%%%% %%%       ..+++@@@#@##$$$$##............ ",
"            %%   %%%%% %%%%      ++@@@@@#@@++######...........  ",
"            %%% %%%%%%...%%   ++######@@@@#####+##$   ....      ",
"             %%%%%%%%....  +++@@@@@@@@@+####+$$#@$$       ...  .",
"                    ....+++@@####@@#+++##+++$@@@@$$       .... .",
"                      ++##@##@#@@@++####+#++$@@@@$$     %%....  ",
"                      ++##@##@#@@@++####+#++$@@@@$$     %%....  ",
"                    $ @#@@####@@++##+++###$$$$$@@@$%%   %%%.. %%",
"..    ...        $$$@$@#@##@@@++#######$$$&&$$$@@@$%%%  %%%% %%%",
"..   ....   ...$$@@@#@@#@@@######++$$$&&&$**&##+@@@+%%%% %%%%%%%",
"    ........$$$#####@@##@@=#####+#$&&&&*****&##+@@@+%%%%%%%% %% ",
"   ......%%$$@@@@@@@@#==#######$&&&*******&*&$$#@#@++           ",
"     ...%%%$=$@@@@@@#++###+###$&&&&&******&&&&&#+@##+           ",
"        %%%$====$$$$##+++##$$&&****&***&&&***&&$#@@#@+          ",
"       %%%% $===$###+++#$$&&&$*****&**&**&*****&#@@#@+   ...    ",
"       %%%% $===$###+++#$$&&&$*****&**&**&*****&#@@#@+   ...    ",
"            $@@=$###$@##$&&**&****&&******-****&$##@@+++....    ",
"           $+===$+++@@@#$*******&&*&***********&$####@++.....   ",
"... ..   $$#+$=$$+++@#@#$*****&&**&************&$##@@@+++.....  ",
"...... ..###+$==$+$$@#@#$**&&&****&-*******&&&&&&$##@#@@+. .... ",
"........$##+#$$$$$$$$#@#$$$&&******-*******&&&&*&&#+#@##@       ",
"  .....#@####+$$$;$$$#@#@$&**&*****&----&&*****&*&&#+@##@+      ",
"      $#####+$$$;;$$#$@@@$$********&--&&&*******&*&#+@##@++     ",
"     +@@+##++$;;;;;;#$#@#@$********&&&**&&******&*&##@###@+     ",
"     +@@+##++$;;;;;;#$#@#@$********&&&**&&******&*&##@###@+     ",
"    $@@+#$$+$;;;;;;;$##@@#$&&*&***&******&******&*$$##@@#@@+    ",
"   $@@+##$$$;;>>;;;;$#@##@#$$*&&&&********-****-&&&&#+@@@@@+    ",
"   $@$$##$$$;>>>;;;;$#+#@@#$$&$&**&*******---&&&&**&&#####@$$   ",
"  ..$$#$$##;>>>>>>>>;$#@##@$$&************&&&&&&****&#$$#@#@$   ",
".....$$$$##;;>>>>>>>;$###@#@@$&****&--*--&**&**&&***&$###@@#$  %",
".....$#####>>>>>>>>>;$###@#@@$&***-&---&&&*****&&&&*&$##$@$$%  %",
".... $@#@##$>>$$@@>>>;###@#@@@&&**-&&&&&&&******&&&&$$$$$$$     ",
"     $@#@##$;$$#=====;$###@@@#$&**&&****&&&&&&&&&$$$$####$      ",
"     $@#@##$;$$#=====;$###@@@#$&**&&****&&&&&&&&&$$$$####$      ",
"     $@@###$$@#@@=====$##+@@@#$&&&&******&**&&&&$;;$$####$      ",
"     $$@@##$@#@@@@@@===$#+@@@#$$&&&******&&&&$$$$;;++@@@#$      ",
"     $$#@##$##@@@@@@#==$#+@@@#@$**&&***&*&$$$$$#$;;##@##@$      ",
"      $#@##@#@$$$@@@@#=$###@@#@$&*&&&&&&&$#$>$$#$>>##@##@$      ",
"   ...$@@$$@#$$$$$@@#@@@$##@@#@@$&&$&&$$$$#,>$$#$>;##@##@       ",
"   ...$@@$$@@$$&$$$$##@@$##@@@#@$&&$$$$>>$#>#$$@$>;#####@ ..    ",
"    ..$@@$$@@#$&&&$$@##@$$###@@@$$$$##$,>$@##@@@#;>$##@@$...  . ",
"..   .$#@$$@@#$*&&$$$##@$$###$@@@$$###$##$@$@##@#>;$#@@@$... .. ",
"..   .$#@$$@@#$*&&$$$##@$$###$@@@$$###$##$@$@##@#>;$#@@@$... .. ",
"...   $@@$$###$**&&&$@$@$@$$$#@@$;$###@#@@#@@##;>>;$$#@@$.%%... ",
"...   $@#$$#@#$*****$@$@$@$##$$$;;$#@@@@@@@#;;;;>>$$$#@@$ %%%   ",
"...  '$#@$$#@#$-&***$@$@$@#$$$@#;;$#@@#@##;;;>>>+#$$$###$  %%   ",
"..  ''$#@$$#@#&&--**$#$#$@#$$$@@>>$$$$@##;>>>>>@@++$$###$'      ",
"    ''$+#$$#@#&***$$$#@#$@#$$@#@>>;;;;;;>>>+@@@+#++$$+##$''     ",
"  ..)'$+#$$#@#$*****$#@######@@$;>>;;;>>>>+@####+#+$$+##$''     ",
"  ..))'++$$##$$&$***$#$#$@@++#@$>>>>>>>@@@#######$$'$''''''     ",
"  ..)).'$))##$$*&$$$$@$#$@@++@#$;>>>@@@@@######$$''''''''''     ",
"  ..)).'$))##$$*&$$$$@$#$@@++@#$;>>>@@@@@######$$''''''''''     ",
"  .....')))$#$$&*&&&$#$#$@#++@@$;$@@+++#####$'''''''  !!!  %% ..",
"....%%..))))$$$$&&**$#$#$#@++#@$$@++######$$''''!%   !!!% %%%%..",
"...%%%% '''''''''$&&$#$#$#@++#$$$$##++#$$)))''' %%%  %%% %%%%%  ",
"%% %%%% %!!!   '''$$$#$#$#@++@$$##++###$)))')... %%  %  %%%%    ",
"%% %%% %%%%%  '  '!!$#$#$@###@$++##$$$)!!)).....                ",
"%% %%  %%     %% !!!$#$#$@+###$+##$!!!!!! .....       ....      ",
"             %% %%!!''$$$#+##+$$$'''!!!%             .....      ",
"                    ''''$++###$''''               .. .....      "};
