/* XPM */
static char * lidle4_xpm[] = {
"64 64 12 1",
" 	c #78A04C",
".	c #63965D",
"+	c #485884",
"@	c #161C2E",
"#	c #4697AC",
"$	c #8BA452",
"%	c #D4EDC2",
"&	c #688C8A",
"*	c #C8A876",
"=	c #9CBEAA",
"-	c #EFE1AB",
";	c #FFFFFF",
" ..                   ...  ....... .. ..++++++@@@  .. ....   ...",
"                      .... ......  ...+++++###@@@@.......    ...",
"                       ....  ......+++#####++++++@@....         ",
"                              ... ++########++++++@@            ",
"         ..                      +++###########+++@@    ..      ",
"   ...   ...   ...              +++#####++#####++++@@  ...      ",
"   ..... .... ....  .. ...      +####+++########+++@@  ..       ",
"    ..............  ......  ... +###++##########+++@@           ",
"     ............  ......  .... ####++##########+++@@@          ",
" ..      ...   ..  .....   ... +###+#######++++++++@@@          ",
" ...  ...                      +###+#####+++++++++++@@          ",
"  .. ....                 $$   @##++####+++@@@@++++++@@         ",
"     ....$$              $$$ $$@##++####++@@@@@++++++@@         ",
"  $$$ ..$$$  $$  $$  ... $$$ $$@++++####@@@@@+++++++@@@@@@      ",
"..$$$$ $$$$ $$$$ $$$.....$$..$$@@+++###+@@@@++++++++@@@@@@ ...  ",
"%%%%$$$$$$ $$$$ $$$$..........@@@+++###+@@@@+++++++@@@@+@@@.... ",
"&&%%%% $$$$$$$  $$$  .......*@@*@@++##++@@@@@++++++@@++++@@ ....",
"&&=%%%%%%                  **-***@++++++@***@@@++++@++++++@@....",
"&&=%==%%%                 **--****++++++*****@@++++@++++++@@ ...",
"&&=%%==%%                 **---*****++++*****@@++++@++++++@@    ",
"&&==%==%%%    ...         ***---***********--@@++++@++@+++@@    ",
"&&==%%%%%%%  ....    ..  ***-**-----------@@@@@@+++@@@++++@     ",
"&&===%%%%%%. .$..   ... ***---------@@@@@@@@@@-@++++++++++@     ",
"&&===%%%%%%%$$$..  .....***------------@@@@***-@@++++++++@@.    ",
"&&====%%%%%%%$$....... .**----@@--------******-@@@+++++++@...   ",
"&@====%%%==%%$          **----@@--------*******@@@++++++@@...   ",
" @====%%%==%%  ..      @*----@@@--------*******-@@@++++@@@.     ",
" @@===%%%===% ...  ... @*----@@@--------*******-@@@@@@@@@@      ",
"  @@===%%===%%........ @@---@@@@---------******-@@@@@@@         ",
"  @@====%====%.......  $@@--@@@@---------******-@@@@@@    @@@   ",
"  @@@===%====%%$....  $$@@@-@@@@---------******--@@ ..    @@@@  ",
"  @@@====%===%@$. $$$$@@@@@@@@@@---------******--@@ ...  @@@@@  ",
" $$@@@===%====@@$$$$$@@-@@@@@@@@@@@@@@@@----****-@@....@@@;;;@@@",
" $$$@@===%%===@@$$$$$@@--@@@@@@@@@@@@@@----*****--@...@@@;;;@@@@",
"  $$@@===%&===@@@$$$.@@*--@@@@@@@@@@------******--@@@@@;;;@@@@@@",
"    @@====&===@@@$$$.@@*----@@@@@@------*********-@@@@;;;;@@--@@",
"     @@====&===@@  ..@****--@@@-----****@@@@@@@@@;;;;;;@@@-##-@ ",
"      @@===&====@  ..@*****-@@@---******@@@@@@@;;;;;;;@---###-@ ",
"      @@===&&===@@   @*****-@@@-********@;;;;;;;;;;------####-@ ",
"      @@@===&====@  @@*****-@@@-********@;;;;;;;;------######-@ ",
"       @@===&&===@@ @@@****-@@@-********@##;---------########-@ ",
"       @@===&@&==@@@@@@@***-@@@-********@##;---------########-@ ",
"       .@&==&@&&=@@@@@@@***-@@@-********@##;---------########-@ ",
"    .  ..@&&&@@@@@@@#@@#@@*-----*******@##;----------########-@.",
".   .. ..@&&&@@@@####@@#@@@-----*****@@@##;--------*-########-@.",
"..  .@@@$@&&@@@@####@@@##@@@----****@@@@##;--------*-#######--@.",
"... @@@@@@@@@@+++#@@@@@@##@@*****@@@@@@@###-------**-#####----@.",
"...@@###@@@++++@@@@@@@+@@###@@@@@@@@##@@###----****-###------@..",
".. @@###@@+++@@@@@***@++@@@#@@@@@###++@@##-----***--##-*-----@  ",
"   @@###@+++@@@@*@@**@++++++++####++++@@#@--------#---**-----@  ",
"    @@#+++@@@@@***@@*@++++++++++++++++@@#@-----####-****-----@  ",
".    @@@@@@@ @@***@@@@@+++++++++++++++@@#@@@@######-***-----@@..",
"...   @@@@   @@@*@@@@@@+++++++++++++++@@#@@########-***----@@@..",
"..... $$  $$  @@@@@@+@@@++++++++++++++@@#@@########-***----@@...",
" ....$$$$ $$$  @@@@+++@@++++++++++++++@@#@@########--*----@@... ",
"     $$$$$ $$  $$@+++@@@@@@@@+++++++++@@#@@-########-*----@.$$  ",
"       $$$$ $  $$@@@@@@@@@@@@@@@@@@@@@@@##@-########-----@ $$$  ",
"                 @@@@@.@@@@@@@@@@@@@@@@@@##--#######----@@ $$$  ",
"         ...       .... @@$$$$  ... ..  @@@@@--####@---@@$ $$   ",
"         ....         @@@@$$             @@@@@-####@--@@        ",
"         .... ..                          @@@@-####@-@@         ",
"          ......               ...         @@@@-###@@@@     ..  ",
"  ..                       .. ....      ... @@@@--@@        ... ",
" ...                       .......     ....   @@@@@    ...  ...."};
