/* XPM */
static char * tower_xpm[] = {
"64 64 20 1",
" 	c #63965D",
".	c #78A04C",
"+	c #8D4848",
"@	c #DE5454",
"#	c #8BA452",
"$	c #161C2E",
"%	c #E1956E",
"&	c #F8D4A6",
"*	c #4E373A",
"=	c #C06D50",
"-	c #65323B",
";	c #BBAE93",
">	c #E1DCA3",
",	c #3F4A50",
"'	c #54726F",
")	c #A4B9AA",
"!	c #688B45",
"~	c #809E94",
"{	c #798F4A",
"]	c #568353",
"   ...    .  ..    ..     .+++@@@++++..   ...................  .",
"   ....            ##++ # $%%%%%@@@@@$   +......................",
".........    .     #+++## +@%%%%%%%@+$   +++....................",
".................++%%@@+# ++@&&&&%%%+$..+@%%++..................",
"......  ........+%%%%@@@$$+$+++++++$+$$$@@%%%%++.....  .........",
"......   ......+%%%%%@@@$*$$++++++++$**$@@@%%%%+ ...   ...   ...",
".......  .....$%%%%%@@$$$**$++++++++$**$$@@@%%%%++.    .     ...",
"..............$%%%&@++++$**$$**++**$$**$+++@&%%%@$          ....",
"..............$*&&&$++++$$$++++++++++$*$++++$&&&$$         .....",
"..............****$++++*+++++++++++++++$+++++$***$..   ......  .",
"...........$$$$***+++++++++++***$$+++++++*+++$***$$$...   ..   .",
"...........+@@$***++++++++$$$+$+++++$**++++*+$**$$@%+..    .  ..",
"..........+%@@@$$*$+++++++++++$+++++$$**++++$$*$@@@%+##    .....",
"..........+%@@@@$$++++$++++++$+=====$+++$++++*$$@@%%%+##  .###..",
"..   .... +%%@@@$++++$++++==$=+====$++=++$**+**$@@%%%+###.####  ",
".    ...  +%%@@@$*++$+++++========$+=+=++$$****$@@%%@+#######   ",
"    ...   %%%%@$$***++==+==-======+==++++$++***$@@%%@+###.##..  ",
"    ..    @&%%%$$*$++===+=$+=====-+==++=$+++$**$@%%%@+........  ",
"   .....  +@&%&$$*+++===+$++====-=+======+=++$*$%%%%&+......... ",
"..........+@@&$$$$+++===$$++==+=-=+====$===++$$$$$&&&$..........",
"..........$+++++$$++++==$+=+==+$======-=+===++$$+++++$   .......",
"..........$+++++$$++++=$==+===+==+==+=-=+===++$$+++++    .......",
"..........$+++$$@$++++-==+====$++===+=======++$@$+++$     ......",
"....  .  ..$+$@@@%$$+--+=====$=====+=-====++$%%@@@$+$      .....",
"...      . $$$@@&%%%$-+====+--===++=-====+$$%%%&@@$$#  .    ....",
"...         $$@@@%%%%$$$==+=-+++====-===$$%%%%%&@@$#............",
".....       $+$@@&%%%%$$++=$========$===$&%%%%%&$$$.  ..........",
".............++++@&%%$+$+=$@@$$$$$$%%=++$+&&%%&+++$    .........",
".............$++@+&&$++$++$@@@%%%%%%%$++$++&&@@@++$     ........",
".............$++@@@@$++$+$@@@%%%%%%%&$++$++$@@@@++$.     .......",
"..........  .$$+@@@@+++$$$%%%%%%%%%&@@$$$++@@@@@$$ ..##.........",
".........   ..$+@+@@++**$+$++&&&&&&&$+$****$@@+++$#.###.........",
".....  ..     $+@@+$$***$++@@@@@@@@@++$****$@@@+$$#####.##...##.",
"....    ..   ##$+@@@@***$++@@@@@@@@@++$***@@@@@+$#########..###.",
"....    .##  ###$+@@@@+$$$++@@@@@@@@++$$+@@@@@+$#  ##..###..##..",
"....   ..##.### $++@@@++@@@+++++@@++@@@@+@@@++$$   .............",
"..........#.###.$$$+++++@@@@@@+@@@@@@@@+++++$$$$  ..............",
"................$;;;$$$+@@@@@@++++++@@++$$$$;;$.................",
".................;;;;;;$++++++++++@@@@@$$;;;;;$.................",
".................$;;>;;;$$$$$$$+++@@$$$$;;;;>;$.................",
".................$$;>;>>;;;;;;;;;;;;;;;;>>>>;$$.................",
"......   ........$;;;;>>>>>>>>>>>>>>>>>>>>>;>;$.................",
"......    ...... $;;>;>>>>>@>@@@@@@@>>>>>>;>>;$ .   ...  .......",
"  .....   ......$,;;>>>>;@@@@@@@@@@>@@@;>;;>>+, .    .   .. ....",
"  .  ...  .   ..$,+;;>>>@@@>>>>>>>>>@@@+>>;>;$,$ .       .  ... ",
"      ....    ..$,+;>;>++>>>')))))''>>++;;;;+$,$ ..    ##   ..  ",
"      ....   ..!$'$+>>++;>'~)))))))'~'>;+>>;+$'$!...  .###...   ",
"      ....  ..!!$'$++;;+$$))''~~~~'$)~$;++>+;$'$!!......##...   ",
"..   .........!!$~~;+++;''~~~~~~~~~'~~'$;+++'~'$!!............  ",
"..............{{$~~~;++$''~~'~~~~~'~~''';+;;~~$$!!..............",
".....   .....#{{$,~~';;$'~~~~$$$$$~~''''$;;'~~,$!...............",
"  ...    ....##!$,$~~~~$~~~$$$+$++$$'~~$$~~~$,,$!.............. ",
"  ...     ..  ]!$'$$~~~$~~~$$++*+++$$~~~$~~~$,,!!............   ",
"    .     .   ]!$'$,'~~$~'$+$++*+@+$$~'~$~~'$,,!!!!.##..##.     ",
".      ##     !!$,,,''$$~~$+*@@*@@+*+'~~$''',,,{!..###.####    .",
"..##  ####....!!$,,,'''$~~$+*@+*@@@@+'~'$''',,${{!.##.#####.....",
"..###.####.###!!!,$,'''$''$++@@+@@@@+,''$''',,${{!.#.####.......",
"..###.###.####!!!,$,'''$''$+@@@+@@@@+'''''',,,$!!!..............",
"...##.##..##..!!{{$,,''$~~'+@@@+@@+@+'~'''',$$!!!...   .........",
"..............!{{!$$,,'$'~'+@@@+@@+@$'~'',,,$!!!!..    .........",
"................!!!!,,,$'''+@@@+@+*+$''$,,,$!!!.  .    .........",
"..  .............!!!$$$,,,,++@@+@+*+$,,$,$$!!!!.      ..........",
".   ..........  ]!!!!]$$$,,$++@*++$+$,,$$!!!!!!.............  ..",
"    ..   .....   ]!!!]]]$,,$$++$++$$$,$$!!!!!!..............   ."};
