/* XPM */
static char * sx_xpm[] = {
"64 64 10 1",
" 	c None",
".	c #506A69",
"+	c #669D9D",
"@	c #63965D",
"#	c #4C6B4F",
"$	c #78A04C",
"%	c #8BA452",
"&	c #456052",
"*	c #161C2E",
"=	c #8CC3C4",
" ..+@@@@##@@@$@@@@$$$$$@@$$$$$$$$$$$$$$@@$$$$$@@@@$@$$$$$$$$$$@@",
" ...@@@@@@$$@@@$@$$$$$$$@@@@@@@$@$$@@$$$@$$$$@@@@$$@$$$$$$$$$$$@",
" .++#++##@@$$$$$$$%$$$$@$@$@@@%@@$@@@@@$$@@@$$$$$$$$$$$$$%$$$$@$",
" .++##+@#@@@$@@$$$%%$@$@@$$$@$%%$$@@@@@$$@@$$$$$$$$$@@$$$%%$@$@@",
" ...@@@@@@@$%@@%%%%%@$$$@@$$$$$$$$@$$@$$$$$$$$%%$$$%@@%%%%%@$$$@",
" .++@@@@@@%%%%%$%%@@%$$$$$$$$$$$$$$$$$@@$$$%%$%%%$$%%%$%%@@%$$$$",
" .&+@@@@@@%%$%%$$@@$$$$$$$$$$$$$$$$@@$@@@$$%$$@%%$$$%%$$@@$$$$$$",
" .&&#@@@$$$$$$$$$$$$$$$$$$$$%$%%@@@@@@@@@$@@$$@@$$$$$$$$$$$$$$$$",
" .&&@@@@@$$$$$$$$$@$$@@$%%$%%$%%@@@$@@@@%@@@$$$$$$$$$$$$$@$$@@$%",
" .&@@@@@@%$$@@$@$$%@@@$@$%$%$%%$$$$$$%$%%$%%$$$$$$$@@$@$$%@@@$@$",
" &@@@@@%@%$$@$@@$%%%%@@@$$$$@@$$$$$$$%$%$%%$$%$%%$$@$@@$%%%%@@@$",
" &@@@@@%%@%$$$$$$$%%$$$$$$$@@@$$$$$$$$$$$$$$%%%%$$$$$$$$$%%$$$$$",
" &@@@@@%%$$$$$$@$$$$$$$$$$@@@$$$$$$$$@$$$$$$$$$$$$$$$$@$$$$$$$$$",
" &&@@@@%%%@@$$$@@@@$$$$$$$$$$$$$$@@@@@$@@$$$@@$$@@@$$$@@@@$$$$$$",
" .&&&@@%%@@@$@$@@@@$@@$$$$$$$$$$$$@@@$$@@$@$@@@$@@@$@$@@@@$@@$$$",
" &&@@@@&&@%%%@@@@@$@@$$$$$$$$$$$$$$$$$$$$@@$@@@%%%%@@@@@@$@@$$$$",
" &@@@@@&@@%$%$$$$$$$$$$$$$$$$@$$$$$$$$$@$$$$$$$$$$$$$$$$$$$$$$$$",
" &@@@@&@@@%$$$$$$$$$$$$$@@$$@@$$@@$$$$$@@$$$$$$$$$$$$$$$$$$$$$$@",
" &@@@@&@@@@@$$$$@@$$@@@$@@@@@@@@@$$$$$$$$$$$$$$%%$%%$$$@@$$@@@$@",
" &&@@&&&@@@$$$$$@@@$@@@@$@@@@@@@$$$$$$$$$$$$%$$%%$%%$$$@@@$@@@@$",
" *&&&@@@&&@@@$$$$$$$$$$$$$$$$$@@$@@$$$$$$$$$%%%%%@@$$$$$$$$$$$$$",
" *##&@@@@@%%@$$%%%%%$$$$$$$$$%@@$$$$$$$$$$$$$$$$$$$$$$%%%%%$$$$$",
" *##&@@@@@%%$$$%%%%%$@@$%$%$$%@@%%$$$$$$$$$$$$$$$$$$$$%%%%%$@@$%",
" *.#&&&&@@%%%$$$$@@@@@@%%%%%%%%%%%@$@@$$@@@$@@$$$$$$$$$$@@@@@@%%",
" **.+##@@@%%%$$%$@$$$$$$$$$$$$$$$$@@@@$@@@@%@@$$$$$$$$$$@$$$$$$$",
" ***=##@@@@%%$%%$$$$$$$$$$$$$$$$$$$@@$$$@@%%@@$$$$$$$$$$$$$$$$$$",
" .++&@@##@@$%%@$$$$$$$$$$@@$$@@$$$$$$$$$$%%$$$$$$$$$$@$$$$$$$$$$",
" .+#&@@@@@$$@@@%$$$$@@@$$@%$@@@@$$$$$$$$$$$$$$$$$$$@@@%$$$$@@@$$",
" .##&@@@@@@$@@%%$$$$@@@@$@%%%@@@$$$$$$@$@$$$$$$$$%%@@%%$$$$@@@@$",
" *.#&&&@@@$@%%%$@@$$$$$$$$$%$$$$$$$$$@@@@@@$$@%%%%@%%%$@@$$$$$$$",
" .##@@#####$@%$$$$$$$$@@$@@@@@$$$$$$$$$$$$$$$$@$$$$@$$$$$$$$$@@$",
" .##@@@###%%%%$%$$$$$$@@@@@@@@$$$$$$$$$$$$$$$$$$$$$$$$$$$$$$$@@@",
" **#@@@@@@%%%$%$$%%$%%$@@@%$$%$$$$$$$$$$$@@$$$$$$$$$$$$$%%$%%$@@",
" *+#@@@@@@%@$$$%$%%$%%%%$@%$%%$$$$$$$$$$$@@$$$@$$$$$$$%$%%$%%%%$",
" *+####@@@@%%%%%%$%%%@@%%%%%%%%%$%%$$$@@$@@%%@@@@@$$$$%%$%%%@@%%",
" .+##@@@@@@@%%%$$$@@@@@%%%@$$$$$$$$$$$@@$%$%@@@$@$$$$$$$$@@@@@%%",
" .###@@@@@@@@%%$$$$@$@@@$$@$$$$$$$$$$$$$$%$%$@$$$$$$$$$$$$@$@@@$",
" .####@###@@@@@@$$$$$$$$$$$$$$$$$$$$$$$$$$$$$$$$$$$$$$$$$$$$$$$$",
" .#####@@@#####@$$@@$@$$$$$$$$$$$$$$$$$$$$$$$$@@$@$$$$$$$$$$$$$$",
" .#####@@@###@@@@@@@@@$@@$$$$$$$$$$$$$$@@$$$$$@@@@$@$$$$$$$$$$@@",
" ..####@@@@@@@@@@$$$$$$$@@@@@@@$@$$@@$$$@$$$$@@@@$$@$$$$$$$$$$$@",
" .++#####@@@@@@$$$%$$$$@$@$@@@%@@$@@@@@$$@@@$$$$$$$$$$$$$%$$$$@$",
" .++##@@@@@@@@@$$$%%$@$@@$$$@$%%$$@@@@@$$@@$$$$$$$$$@@$$$%%$@$@@",
" ...&@@@@@@@%@@%%%%%@$$$@@$$$$$$$$@$$@$$$$$$$$%%$$$%@@%%%%%@$$$@",
" .++&@@@%%@$@%%$%%@@%$$$$$$$$$$$$$$$$$@@$$$%%$%%%$$%%%$%%@@%$$$$",
" .++&@@@@%%$$$$$$@@$$$$$$$$$$$$$$$$@@$@@@$$%$$@%%$$$%%$$@@$$$$$$",
" .+#&&&@@@%%$$$$$$$$$$$$$$$$%$%%@@@@@@@@@$@@$$@@$$$$$$$$$$$$$$$$",
" .&&&@@%%@%%$@$$$$@$$@@$%%$%%$%%@@@$@@@@%@@@$$$$$$$$$$$$$@$$@@$%",
" &&&&@@@%%%%@@$@$$%@@@$@$%$%$%%$$$$$$%$%%$%%$$$$$$$@@$@$$%@@@$@$",
" &@@@&@@@%$$@$@@$%%%%@@@$$$$@@$$$$$$$%$%$%%$$%$%%$$@$@@$%%%%@@@$",
" &@@@@@%%%$$$$$$$$%%$$$$$$$@@@$$$$$$$$$$$$$$%%%%$$$$$$$$$%%$$$$$",
" &@@@@@@@%%%$$$@$$$$$$$$$$@@@$$$$$$$$@$$$$$$$$$$$$$$$$@$$$$$$$$$",
" &&&&&@@@@@@$$$@@@@$$$$$$$$$$$$$$@@@@@$@@$$$@@$$@@@$$$@@@@$$$$$$",
" .&&&&@@@@@@@$$@@@@$@@$$$$$$$$$$$$@@@$$@@$@$@@@$@@@$@$@@@@$@@$$$",
" &@@@&@@@@@$$@@@@@$@@$$$$$$$$$$$$$$$$$$$$@@$@@@%%%%@@@@@@$@@$$$$",
" &@@@&&@@@@@@@$$$$$$$$$$$$$$$@$$$$$$$$$@$$$$$$$$$$$$$$$$$$$$$$$$",
" &@@@@@@@@$$$$$$$$$$$$$$@@$$@@$$@@$$$$$@@$$$$$$$$$$$$$$$$$$$$$$@",
" &@@@@@@@%$%%$$$@@$$@@@$@@@@@@@@@$$$$$$$$$$$$$$%%$%%$$$@@$$@@@$@",
" &&&@@@@@%%%%$$$@@@$@@@@$@@@@@@@$$$$$$$$$$$$%$$%%$%%$$$@@@$@@@@$",
" &&@@@@$$@@@$$$$$$$$$$$$$$$$$$@@$@@$$$$$$$$$%%%%%@@$$$$$$$$$$$$$",
" &@@@@@@$$$@$$$%%%%%$$$$$$$$$%@@$$$$$$$$$$$$$$$$$$$$$$%%%%%$$$$$",
" &@@&@@@@$$$@$$%%%%%$@@$%$%$$%@@%%$$$$$$$$$$$$$$$$$$$$%%%%%$@@$%",
" &&&&@@&&@@@@$$$$@@@@@@%%%%%%%%%%%@$@@$$@@@$@@$$$$$$$$$$@@@@@@%%",
" **.&&&@@@%@%%%$$@$$$$$$$$$$$$$$$$@@@@$@@@@%@@$$$$$$$$$$@$$$$$$$"};
