/* XPM */
static char * wall_xpm[] = {
"64 64 7 1",
" 	c #63965D",
".	c #78A04C",
"+	c #8BA452",
"@	c #506A69",
"#	c #8CC3C4",
"$	c #669D9D",
"%	c #161C2E",
"   ...    .  ..    ..     .  .       ..   ...................  .",
"   ....            ++.  +    ..      .    ......................",
".........    .     +++.++          ..    .......................",
"....................++.++  ....   ..............................",
"......  .............................................  .........",
"......   .....................................   ...   ...   ...",
".......  ...........++..++............   .  ..    .    .     ...",
"...................++++.+++......   ..      ..              ....",
"..............++...++++.++++.....    ..      ..            .....",
"..............+++.+++++   ++......   ...     ..  ...   ......  .",
"...............+++++++    .............................   ..   .",
".....................    .....+++...++.................    .  ..",
"..............................+++++.+++..............++    .....",
"..............................+++++.+++.   ..++..++..+++  .+++..",
"..   ....   ...................++++  ++     +++.++++.++++.++++  ",
".    ...    ..    ................          ++++.++++.+++++++   ",
"    ...           ................         ..+++..+++++++.++..  ",
"    ..      ++    ................  @@@@@.....................  ",
"   .....   +++   ...............@@@@@@@@@@@.................... ",
"...........+++.................@@@@@@####@@@....................",
"..........+++................  @@@@#######@@@..   ....   .......",
".........................@@@@@@@@$$########@@@.    ..    .......",
"......................@@@@@@@@@@$$$########$@@@@ + .      ......",
"....  .  ...........@@@@@@@$$$$$$$$$#######$$$@@@++++      .....",
"...      .   .....+@@@@@@$$$$######$$######$$$$@@@+++  .    ....",
"...          ...  @@@$$$$$$$########$######$$$$$%@++............",
".....       .... @@@####$$$$################$$$$%%@.  ..........",
"..............@@@@@#######$$#################$$$%%%    .........",
".............@@@@@#########$$#################$$%%%%    ........",
".............@@%###########$$##################$%%%%     .......",
"..........  .@@%############$###################%%%%%++.........",
".........   @@%%###############################%%%%%%++.........",
".....  ..   @%%%##############$################%%$$%%++.++...++.",
"....    .. %%%%%%##############$#####$#######%%%@@$$%%++++..+++.",
"....    .++%%%$$%%##############$####$######%%%@@@@$%%.+++..++..",
"....   ..+%%$$$$$$$#############$$$$$$$##@@@@@@@@@@$$%%.........",
"..........%%$$$$$$$$############$$$$$$$$###$@@@@@@@@$%%.........",
"..........%%$$$$$$$$$########%%%%$$$$#####$$$$@@@@@@$%%.........",
".........%%$$$$$$$$$$$####%%%%%%%%@$####$$$$$$$@@@@@$%%.........",
".........%%$$$$$$$$$$$$$$$$$@@@@@@@@@@@$$$$$$$$@@@@@$%%.........",
".........%%$$$$$$$$$$$$$$$$$@@@@@@@@@@$$$$$$$$$@@@@@$%%.........",
"......   %%$$$$$$$$$$$$$$$$$@@@@@@@@@$$$$$$$$$$@@@@@$%%.........",
"......   %%$$$$$$$$$$$$$$$$$@@@@@%@@@$$$$$$$$$$@@@@@%%%  .......",
"  .....   %%$$$$$$$$$$$$$$$$@@@@@%@@@$$$$$$$$$$@@@@%%%%  .. ....",
"  .  ...  %%%$$$$$$$$$$$$$$$@@@@@%%@@$$$$$$$$$@@@@%%%    .  ... ",
"      .... %%%$$$$$$$$$$$$$$@@@@@%%@@$$$$$$$$$@@@$.    ++   ..  ",
"      ....   %%$$$$$$$$$$$$@@@@@@%%@@@$$$$$$$$$$$...  .+++...   ",
"      ....  ..%%$$$$$$$$$$$@@@%%%%%%%@@@@$$$$$  ........++...   ",
"..   ...........$$$$$$$$$@@@%%%%%%%%%%%  ....   ..............  ",
"..............++.++++....++++  +%%%%% +++.......................",
".....   .....+++.+++++....++++..+++   ++........................",
"  ...    ....++..  ++++.....++....   .......................... ",
"  ...     ..   ..   .........................................   ",
"    .     .    ...  ................................++..++.     ",
".      ++     .....................  ...   ...++...+++.++++    .",
"..++  ++++...............   .......   .    ...+++..++.+++++.....",
"..+++.++++.+++...........    .   ..++     .   .++..+.++++.......",
"..+++.+++.++++......++...        .+++ ++      ..................",
"...++.++..++....++.+++....  .   ..++++++.    .......   .........",
"...............++.+++...............+++............    .........",
"................................................  .    .........",
"..  ..........................   ...............      ..........",
".   ..........   ....   ......    .  .......................  ..",
"    ..   .....    ...    .....       .......................   ."};
