/* XPM */
static char * angolosd_xpm[] = {
"64 64 10 1",
" 	c None",
".	c #506A69",
"+	c #161C2E",
"@	c #456052",
"#	c #8CC3C4",
"$	c #669D9D",
"%	c #4C6B4F",
"&	c #63965D",
"*	c #78A04C",
"=	c #8BA452",
"                                                                ",
"     ...             ++@@@@@++@@@@                              ",
"......##$............%@@@&&&@@@&&&@%@.......@@@@..    +++       ",
"...%.##$##&#......$$.@@&@&&&@@@&&&@%@......@@&&@...  +++++      ",
"%#&&&#$$#&&&##&##&&%@@@&&&&&&&@&&&@@&&&#%%#@&&&@@+++++&&&++     ",
"&&&&%$&&#&&&%&&%&&&&&&&&&&&&&&@&&&&@&&&&%&&%&&&+&&&++&&&+&&+    ",
"*&&&$&&&&#&&&&&&&&&%&&&&&&&&&&&&&&&&@&&&%&&&&&@&&&&&+&&&+&&+    ",
"=&&&&&&*&&&&&&*&**&%&&&&&***&&****=&&&&&&&&&*&&&&&&&+&&&&&&@    ",
"**&&&==*****&****&&&&**&********=*==&=&&=&&=*&*&&&++&&&&&&&&@@  ",
"**=====*&**=*=*==&*==************====***=====*&&&=&&&&&&&&&&&&@ ",
"**=====&&&===========&*&&**&&***********=*===&&&==&*&==&&&&&&&@ ",
"****&&&*&**=========*&&&**&&&&&&&*********&&&&&***=*===&&&&@@@  ",
"*********************&&&***&==&&****************&&===&&&&&&&@   ",
"****************************==******************&**==&&&&&&&@.  ",
"*&******&***&&*&&&*******************&*&******&*****==&&&&&&@@  ",
"&==****&&&&*&==&&&&*****&*&********==&&==***&&&&&***&&&&&&&&@@  ",
"===*&**&*&&&&==&&&&&****&&&*&&***========&&*&&*&&**&&&%%&&&@@+  ",
"&**&********&**&*********&&&&**&&=*=&&&**&**********&%&%@@@&@@  ",
"*********&&&&&&&&******************************&&&&&&&&&&&&&&@+ ",
"****=**=*&&&&&*&&&************************=**=*&&&&&&*&&&&&&@@+ ",
"**====*====*==*==**********&&*&*&*******=*=======*==*&=&&&&&&$. ",
"**==*===&=========**=***&&&*&&=&&&&&****==*===&========&=&&%%$. ",
"***=*&&=&&===&=**=**=***&&&=&&=&&&&&*****=*&&=&&===&=====&&&%%. ",
"******&*&&&*&&***************==&&***********&*&&&*&&***=*&&&%%% ",
"********************************************************&&&$... ",
"********************************&&*&*******************=&%%%.$$.",
"&*********&&*************&&*****&&&&*&&*********&&*****=&&%%%$$.",
"***********&*&&*&&*&**&***&&***&&&&&*&***********&*&&*&&&&&%%$..",
"*****=****&*&*&&&=&&*&&&&***&&*************=****&*&*&&&=&&#&#$$.",
"*&***==*&*&&***&*=**&&&&&***&&*********&***=**&*&&***&==&&#&&$$.",
"=&=====&***&*********&*&&********=***==&=====&***&***=*==&&&$@.+",
"==*==&&=*****************&&***=*===**===*==&==*********=&&&%@.++",
"*=**&&***************&&**&&***=*&===***=**&&************&&&&@@@+",
"***************=*=*&&&&&*&&&&&&**&*******************=*==&&&&&@+",
"&****&&&&**==*=*===****=&===*********&&****&*&&**==*====&@@&&&@.",
"&*&&*=&&&&&*=*====*****=======*******&&*&**=&&&&&*=*====&@@&&&@.",
"&&&*====&&&****&&*******===*=**====**&&&&*====&&&****&&&=&@@@@@.",
"************&&&&&*********************************&&&&&*=&&@&&@@",
"**&&********&&&&*******&****************&*********&&&&**=&@&&&&@",
"**&&&&**************&*&&*&&***&&&*&&&***&&&&***********===&&&&&@",
"&*&&&&*&&*************&&**&&&&&&&=*&=&&*&&&&&&&*******&&=@@&&&&@",
"**&&******************************=*=&**&&**********&&&&@&&@@@@+",
"***************&&********&&**************************&&&&&&@@@@+",
"*******&*&*&&&&&&&&&******&*******=*=*******&&*&*&&&&&&*&==&@@@.",
"=***&&*&&&&*&&&&&&&***********=**======**&&&*&&&&*&&*&&&==&@&&@.",
"=***&&**&&&*&**&&***&*********==*===&==***&&**&&&*&**&&**=&&&&@.",
"**==*==**********&&*&*************&&&***=**=***********&===&&&@.",
"**=====*&**=*=*==&*==*******************=====*&**=*=*==&=&&&@@@.",
"**===&=&&&===========&*&&**&&***********===&=&&&========&@@@@@..",
"****&&&&&**=**======*&&&**&&&&&&&*********&&&&&**=**=**==&&+$$$.",
"*********************&&&***&==&&*********************=*=&&&+$$$.",
"****************************==***********************===&&&++$$.",
"*&******&***&&*&&&*******************&*&******&***&&*&&&&++&+++.",
"&==****&&&&*&==&&&&*****&*&********==&&==***&&&&&*&==&&&*&&&&&++",
"===*&**&*&&&&==&&&&&****&&&*&&***========&&*&&*&&&&==&=&*&&&&&++",
"&**&********&**&*********&&&&**&&=*=&&&**&********&*=&==*&&&++++",
"*********&&&&&&&&******************************&&&&&&&&*&&&&&&++",
"****==*==*&&==*==***********&*************====***&==&&&&@@&&&&++",
"**====*====*==*==**********&&*&*&*******=*=====***=&&&&&&@@&&&++",
"**==*===&=========**=***&&&*&&=&&&&&****==*===&==***&&&&&&%+++$+",
"*****&&&&&==&&**********&&*=*==&&*&********&&&&&==&&%%%%%%%&&&++",
"******&*&&&*&&***************==&&***********&*&&&=&%&&&%%%&&&&.+",
"*********************************************&&***&&&*&&&&&&&&..",
"********************************&&*&*****************&&&&&&%$$.."};
