/* XPM */
static char * angolois_xpm[] = {
"64 64 12 1",
" 	c None",
".	c #161C2E",
"+	c #506A69",
"@	c #456052",
"#	c #63965D",
"$	c #8BA452",
"%	c #78A04C",
"&	c #669D9D",
"*	c #8CC3C4",
"=	c #4C6B4F",
"-	c #C6F0DB",
";	c #458597",
" ..+@@@###$#$$$%%#%%%%%%%%%%%%%%%%####%####$##%%%%%%%%%%#%%%%%%%",
" .&&*==###$$%$%%%%%%%%%%%%%%%%%%%%%%%%%%%%$$%%%%%%%%%%%%%%%%%%%%",
" +&&=#==##$%###%%%%%%##%%##%%##%%%%%%%%%%%%%%%%%%%%###%%%%%%##%%",
" ++&#####$$%###$%%%%###%%#$%####%%%%%%%%%%%%%%%%%%%###$%%%%###%%",
" &+=#####$$$$$$$##%%#%####$$$####%%%%######%%%$$$$$$$$$##%%#%###",
" &&&###$$$$###%%#%%%%%%%%#%%#%%%%%%%%%#####%%##$%$###%%#%%%%%%%%",
" &&=@##$$$%%#%%%%%%%%%##%#####%%%%%%%%%%%%%%%%#%%%%#%%%%%%%%%##%",
" +=@@##$$$$$%%%%%$%%$%%####%###%%%%%%%%%%%%%%%%%%%%%%%%%$%%$%%##",
" +@@####$#$$%%%%%$$%$$%###$%%$%%%%%%%%%%%##%%%%%%%%%%%%%$$%$$%##",
" +@@#######%%%%$$%$$$$$$$$$$$$$$%%$%%%##%###%##%##%%%%$$%$$$$$$$",
" +=@######$$%%%%$%##$##$$$#$$%$$%$%%%%##%$#$$####%%%%%%$%##$##$$",
" .=@@#####$$%$%%%%#####$$$#%%%%%%%%%%%##%$%$###%#%%%%%%%%#####$$",
" ..@#####$$$$$%%%%%%%%##%%%%%%%%%%%%%%%%%%%%%%%%%%%%%%%%%%%%%##%",
" ...@@@@##$$$%%%%%%%%%%%%%%%%%%$%%%%%%%%%%%%%%##%%%%%%%%%%%%%%%%",
" ....##@@$#$$%%%%%%%%%%%%%%%%$$$%%%%%%%%%%%%%%##%#%%%%%%%%%%%%%%",
" .###########$$%%%%%%%%#####$$#$%%$%%$%##%%%%#######%%$%%%%%%%##",
" .#######$$$$$$%$$%%$#%%##%####$#$$##$$$#$##%#$#%%%$%%%%%$$%%%%#",
" .#######$$$$$%%$$$$$###$#%###########$$$$##%$$##$%$$$$%%$$$%%#%",
" +.....###%%###$###$#####$$$$$#########$$##%%%###$$###$$$$$$####",
" .++...###%%##############$$$#########$$$%%%%#######$##$$@@#####",
" .++..#######=##########################$$$%$$#####$$###@######%",
" .++.########==###@##@#######@############$#############@@##@@##",
" .++.#####.##==##@###@@######@####@###########==#########@@@@@##",
" ...&..##..&==*@@@###@@##=@###@###@##@####@##==######=###@@=@@##",
" ..+**....*&&****@@##@@==*@@#@@@##@@@####@@##=###*=#**@@@@&&&+@@",
" .++***===**&*****@@@@@===&@@@=@@@@=@####@@#==###**=**@@@&&&&===",
" .++&***************&&&===+====**====@@@@==@*=***&&*&&******+.==",
" ..++***********&&&&&&&&+++**********+...&&&&&&&&&&&********..+*",
" ..++++&&******&&&&&**&+++***********+...&&&&&&&&&&*********...*",
" ....++&&&&&&&&&&&*****+.*********&&&&++..****&&&*********&&++.+",
"  ..+++&&&&&&&&&******+..+&****&&&&&&&++.++.****&&&&&&&&&&&&&+++",
"  ..+++&&&&&&&&&&&***++..+&&&&&&&&&&&&++.+++**&&&&&&&&&&&&&&&+++",
"  ..+++&&&&&&&&&&&&&&&++.+&&&&&&&&&&&&++.+++&&&&&&&&&&&&&&&&&++&",
"  ..+++&&&&&&&&&&&&&&&++.++&&&&&&&&&&&+++++&&&&&&&&&&&&&&&&&&++&",
"  ..++++&&&&&&&&&&&&&&+++++&&&&&&&&&&&+++++&&&&&&&&&&&&&&&&&&&.&",
"  -.+++++&&&&&&&&&&&&&&++++&&&&&&&&&&&+++++&&&&&&&&&&&&&&&&&&&.+",
"  -..++++&&&&&&&&&&&&&&+++++&&&&&&&&&&++.++&&&&&&&&&&&&&&&&&&+.+",
"  --...++&&&&&&&&&&&&&&+..+++&&&&&&&&&++.++&&&&&&&&&&&&&&&&&&+.+",
"  --..++++&&&&&&&&&&&&&+..+&&&&&&&&&&&++.++&&&&&&&&&&&&&&&&&+..+",
"  --.+++++++&&&&&&&&&&&+..+&&&&&&&&&&++..++&&&&&&&&&&&&&&&&+..++",
"  --.++*****+++&&&&&++++..+&&&&&&&&&&+...++&&&&&&&&&++++&+++&&+.",
"  --.++&********&&&&&&&&..+&&&&&&&&&+*++.++&&&&&&&&&&&&&&&&&&&+.",
"  --.++&&******&&&&&&&&&+.+&&&&&&&&****+.+++&&&&&&&&&&&&&&&&&&+.",
"  --.++++***&&&&&&&&&&&&+.++&&&&&&****&+.+++&&&&&&&&&&&&&&&&&&+.",
"  --.++++&&&&&&&&&&&&&&&++++++&&&&&&&&++.+++++&&&&&&&&&&&&&&&&+.",
"  --.++++&&&&&&&&&&&&&&&+++++&&&&&&&&&++.++*+++&&&&&&&&&&&&&&&+.",
"  --.++++&&&&&&&&&&&&&&&+++&&&&&&&&&&&++.++********&&&&&&&&&&&+.",
"  --.++++&&&&&&&&&&&&&&&+++&&&&&&&&&&&++.++*******&&&&&&&&&&&&+.",
"  --.++++&&&&&&&&&&&&&&&++++&&&&&&&&&&++.++&&&&&&&&&&&&&&&&&&++.",
"  ---++++&&&&&&&&&&&&&&&++++&&&&&&&&&&++.++&&&&&&&&&&&&&&&&&&&+.",
"  ---++++&&&&&&&&&&&&&&&++++&&&&&&&&&&++.+++&&&&&&&&&&&&&&&&&&+.",
"  ---.++++&&&&&&&&&&&&&&+++&&&&&&&&&&&++.+++*****&&&&&&&&&&&+++.",
"   --..++++&&&&&&&&&&&&&+++&&&&&&&&&&&++.+++&&&&&&&&&&&&&&&+&&++",
"   ---.+++++&&&&&&&&&&&&+++&&&&&&&&&&&++.+++&&&&&&&&&&&&&&+&&&&+",
"   ----...++&&&&&&&&&&&++++&&&&&&&&&&+++++++&&&&&&&&&&&&&&&&&&&+",
"    ----+++&&+++++&&&&&+++++&&&&&&&&&&+++++++&&&&&&&&&+&&&&&+++.",
"      --+++&&&+&&&&&&&&++.++&&&&&&&&+&++++++++&&&&&++++&&&+++++.",
"     -----+++++&&&&&&&++--++++++++&&&&++-+++++++&&&&+++++++++++-",
"     ------++++++&&&+-----++++++&&&&&++--+++++++&&&&++++++++++--",
"      ----------------------+++++++++-------++++++++++++++++----",
"       ;;---------------------------------------+++++++---------",
"       ;;;------------------------------------------------------",
"          ;;;;;----;;-------------------;;;;---------------;----",
"            ;;;;;;---;;;--; ----------;;    ;;---------;;;;;;;;-"};
